<?xml version="1.0" encoding="UTF-8"?>
<svg version="1.1" xmlns="http://www.w3.org/2000/svg" width="1080" height="1080">
<path d="M0 0 C0.33 0.99 0.66 1.98 1 3 C1.680625 3.2475 2.36125 3.495 3.0625 3.75 C6.60206694 5.2561987 8.77825869 7.34599546 11.59765625 9.921875 C15.42379824 13.23164336 19.55183948 16.13071626 23.65625 19.08203125 C24.4296875 19.71496094 25.203125 20.34789062 26 21 C26 21.66 26 22.32 26 23 C26.66 23.185625 27.32 23.37125 28 23.5625 C31.44012347 25.21089249 33.70373239 27.27144353 36.51171875 29.8203125 C39.5021597 32.43988243 42.61092445 34.87482961 45.75 37.3125 C51.33429753 41.66040791 56.79333608 46.12571487 62.21484375 50.67578125 C66.42185175 54.18653828 70.71024484 57.5912852 75 61 C77.48064641 62.97731661 79.95942619 64.9569605 82.4375 66.9375 C83.40864746 67.71347534 83.40864746 67.71347534 84.39941406 68.50512695 C88.14137201 71.49935377 91.86203795 74.51698698 95.5625 77.5625 C100.14057738 81.32354587 104.78928102 84.98507925 109.45727539 88.63305664 C114.70542203 92.74508711 119.8752822 96.94929391 125.04003906 101.1652832 C129.30230905 104.63826295 133.60083391 108.05802878 137.9375 111.4375 C143.22160875 115.55663229 148.40466182 119.78651542 153.5625 124.0625 C158.57755642 128.21999862 163.62438803 132.31022079 168.8125 136.25 C174.1218597 140.28351857 179.22902085 144.49951761 184.3203125 148.80078125 C186.57501624 150.65121595 188.84559533 152.35361046 191.25 154 C192.1575 154.66 193.065 155.32 194 156 C194 156.66 194 157.32 194 158 C194.81404297 158.36351562 194.81404297 158.36351562 195.64453125 158.734375 C205.06337161 163.79524445 213.41207351 171.94126546 221.61865234 178.74609375 C226.69205833 182.94634888 231.83509432 187.04244315 237.03173828 191.08862305 C240.85263788 194.07290599 244.60077676 197.13115843 248.3125 200.25 C252.282002 203.5831298 256.30106459 206.81467441 260.41015625 209.97265625 C263.8746592 212.68468797 267.27885579 215.46827914 270.6875 218.25 C276.42649871 222.93162027 282.21065684 227.54711192 288.0480957 232.10522461 C292.59570721 235.66288876 297.0614678 239.31331338 301.51171875 242.9921875 C304.47303825 245.38169805 307.52491872 247.61973241 310.63671875 249.80859375 C311.08660156 250.20175781 311.53648437 250.59492188 312 251 C312 251.66 312 252.32 312 253 C312.74121094 253.25652344 313.48242188 253.51304687 314.24609375 253.77734375 C317.12570491 255.05580941 318.79448312 256.39936251 321.0625 258.5625 C324.50875294 261.72917282 328.04450947 264.59832635 331.8125 267.375 C338.08705593 272.00925324 344.03760589 276.97444012 350 282 C357.06272619 287.89148612 357.06272619 287.89148612 364.35546875 293.4921875 C364.91105469 293.90138428 365.46664062 294.31058105 366.0390625 294.73217773 C367.60805713 295.87941211 369.18469805 297.01616746 370.76171875 298.15234375 C371.50035156 298.76207031 372.23898437 299.37179687 373 300 C373 300.66 373 301.32 373 302 C374.03640625 302.32484375 374.03640625 302.32484375 375.09375 302.65625 C378.77616922 304.35887394 381.51249343 306.81681139 384.5 309.5 C389.19614517 313.62791722 393.95295874 317.5997391 398.9375 321.375 C400.00661322 322.19127162 401.07562792 323.0076723 402.14453125 323.82421875 C403.84763973 325.12193616 405.55267941 326.41713455 407.26171875 327.70703125 C411.95894357 331.43920778 414.3668586 335.05887265 415.34765625 341.1640625 C415.76276909 347.35882338 413.73634248 351.18727092 410 356 C407.59284885 358.38330134 405.00097319 360.44386587 402.3125 362.5 C401.60279053 363.05896973 400.89308105 363.61793945 400.16186523 364.19384766 C398.75307359 365.30248383 397.34049976 366.40633399 395.92382812 367.50488281 C393.4452546 369.43112447 391.0038822 371.40193326 388.5625 373.375 C387.04221604 374.58402447 385.52139612 375.79237535 384 377 C383.16339844 377.67289063 382.32679688 378.34578125 381.46484375 379.0390625 C380.65144531 379.68617188 379.83804688 380.33328125 379 381 C378.278125 381.5775 377.55625 382.155 376.8125 382.75 C375 384 375 384 373 384 C373 384.66 373 385.32 373 386 C371.24003752 387.48142929 369.41233116 388.88243816 367.5625 390.25 C361.12922167 395.06927242 354.92034543 400.12811672 348.73852539 405.26464844 C348.05008545 405.83602539 347.36164551 406.40740234 346.65234375 406.99609375 C346.04382568 407.50325928 345.43530762 408.0104248 344.80834961 408.53295898 C339.30204693 413 339.30204693 413 337 413 C337 413.66 337 414.32 337 415 C335.63671875 416.19140625 335.63671875 416.19140625 333.6875 417.5625 C329.14560308 420.84950561 324.834878 424.37657949 320.515625 427.94921875 C314.32 433 314.32 433 312 433 C312 433.66 312 434.32 312 435 C310.3828125 436.4453125 310.3828125 436.4453125 308.125 438.125 C307.29355469 438.7540625 306.46210937 439.383125 305.60546875 440.03125 C304.74566406 440.6809375 303.88585937 441.330625 303 442 C297.72279481 446.15614088 292.5120244 450.39480109 287.30493164 454.63818359 C281.57381957 459.30777687 275.82627046 463.94950637 270 468.5 C260.2508411 476.11683606 250.69378466 483.97122513 241.125 491.8125 C237.05728191 495.14501571 232.95953557 498.4370699 228.84765625 501.71484375 C225.98915554 504.00870234 223.14632485 506.32079235 220.3059082 508.63696289 C214.26860524 513.55728236 208.21971786 518.46341208 202.125 523.3125 C201.5362207 523.7866333 200.94744141 524.2607666 200.34082031 524.74926758 C196.23090913 528 196.23090913 528 194 528 C194 528.66 194 529.32 194 530 C192.58227539 531.29345703 192.58227539 531.29345703 190.59765625 532.7578125 C189.87674805 533.29688232 189.15583984 533.83595215 188.41308594 534.39135742 C187.63739258 534.96345947 186.86169922 535.53556152 186.0625 536.125 C180.57289564 540.23994881 175.28130077 544.40198037 170.2265625 549.046875 C166.92928587 551.93922292 163.43367678 554.56359877 159.94311523 557.21508789 C155.41098649 560.66294367 150.99610917 564.23735671 146.6015625 567.859375 C140.84373987 572.59704287 134.99777842 577.2228517 129.12548828 581.81738281 C118.75264503 589.93626654 108.54892104 598.25878005 98.375 606.625 C94.39489539 609.88738083 90.36641858 613.08045987 86.3125 616.25 C76.46128304 623.95312521 66.79709551 631.8865656 57.125 639.8125 C52.93635277 643.24355931 48.7215521 646.63981093 44.48828125 650.015625 C41.06134037 652.74857 37.64441368 655.49398054 34.2265625 658.23828125 C33.49179687 658.81964844 32.75703125 659.40101563 32 660 C31.28585937 660.57105469 30.57171875 661.14210938 29.8359375 661.73046875 C28 663 28 663 26 663 C26 663.66 26 664.32 26 665 C24.3828125 666.4453125 24.3828125 666.4453125 22.125 668.125 C18.60299975 670.78458312 15.12494255 673.48165845 11.6875 676.25 C10.12892538 677.504891 8.56671492 678.75528694 7 680 C6.28457031 680.57234375 5.56914063 681.1446875 4.83203125 681.734375 C3 683 3 683 1 683 C0.67 683.99 0.34 684.98 0 686 C-2.36328125 687.7890625 -2.36328125 687.7890625 -5.3125 689.625 C-6.27800781 690.23601563 -7.24351562 690.84703125 -8.23828125 691.4765625 C-14.41323726 694.88283244 -21.08806377 694.59671392 -28 694 C-31.01620239 693.09019469 -33.40326847 691.76328276 -36 690 C-36.67289063 689.56816406 -37.34578125 689.13632812 -38.0390625 688.69140625 C-39.75041501 687.54255009 -41.38391477 686.27940081 -43 685 C-43 684.34 -43 683.68 -43 683 C-43.66 682.814375 -44.32 682.62875 -45 682.4375 C-48.50197091 680.75947227 -50.8777616 678.60916282 -53.73828125 676.015625 C-60.42443994 669.87566373 -60.42443994 669.87566373 -68 665 C-68 664.34 -68 663.68 -68 663 C-68.66 662.814375 -69.32 662.62875 -70 662.4375 C-73.44012347 660.78910751 -75.70373239 658.72855647 -78.51171875 656.1796875 C-81.5021597 653.56011757 -84.61092445 651.12517039 -87.75 648.6875 C-93.33429753 644.33959209 -98.79333608 639.87428513 -104.21484375 635.32421875 C-108.42185175 631.81346172 -112.71024484 628.4087148 -117 625 C-119.48064641 623.02268339 -121.95942619 621.0430395 -124.4375 619.0625 C-125.08493164 618.54518311 -125.73236328 618.02786621 -126.39941406 617.49487305 C-130.14137201 614.50064623 -133.86203795 611.48301302 -137.5625 608.4375 C-142.14057738 604.67645413 -146.78928102 601.01492075 -151.45727539 597.36694336 C-156.70172832 593.25780699 -161.86815219 589.05680272 -167.02905273 584.84350586 C-171.39815829 581.28320024 -175.80597209 577.77870596 -180.25 574.3125 C-184.58838079 570.92859951 -188.85234485 567.47998965 -193.0625 563.9375 C-197.6612816 560.07159197 -202.36091767 556.38510536 -207.14257812 552.75195312 C-211.88185619 549.1337946 -216.43430156 545.31353419 -220.98828125 541.46484375 C-225.13426387 538.07169844 -229.4458224 534.93633264 -233.796875 531.8125 C-234.52390625 531.214375 -235.2509375 530.61625 -236 530 C-236 529.34 -236 528.68 -236 528 C-236.54269531 527.75765625 -237.08539063 527.5153125 -237.64453125 527.265625 C-247.06337161 522.20475555 -255.41207351 514.05873454 -263.61865234 507.25390625 C-268.13201079 503.51731253 -272.68964052 499.85008009 -277.3125 496.25 C-282.70648013 492.04864716 -287.97278255 487.7231996 -293.2109375 483.328125 C-298.98477166 478.50850993 -304.89371382 473.86305459 -310.82177734 469.23535156 C-317.61502367 463.92652007 -324.2953622 458.49384246 -330.94116211 453.00170898 C-340.80435092 444.76562444 -340.80435092 444.76562444 -351.125 437.125 C-352.07375 436.42375 -353.0225 435.7225 -354 435 C-354 434.34 -354 433.68 -354 433 C-355.10988281 432.61714844 -355.10988281 432.61714844 -356.2421875 432.2265625 C-359.14523223 430.93540663 -360.83779202 429.55784868 -363.125 427.375 C-367.45343824 423.37502672 -372.0601107 420.00387439 -376.91015625 416.6640625 C-377.94462891 415.84035156 -377.94462891 415.84035156 -379 415 C-379 414.34 -379 413.68 -379 413 C-379.53109375 412.76925781 -380.0621875 412.53851562 -380.609375 412.30078125 C-383.75459498 410.58941156 -386.46314557 408.4157282 -389.25 406.1875 C-390.16265625 405.46433594 -390.16265625 405.46433594 -391.09375 404.7265625 C-396.44371739 400.47486077 -401.74143971 396.15881328 -407.03613281 391.83862305 C-411.32230907 388.34616401 -415.64235286 384.90275944 -420 381.5 C-426.47194606 376.44370522 -432.85595335 371.28439955 -439.2109375 366.08203125 C-441.56924024 364.15364603 -443.94417742 362.25341933 -446.3515625 360.38671875 C-447.32867187 359.61972656 -448.30578125 358.85273437 -449.3125 358.0625 C-450.15425781 357.41410156 -450.99601562 356.76570313 -451.86328125 356.09765625 C-455.01219434 353.00631013 -456.68664982 349.82646456 -457.43359375 345.47265625 C-457.44279464 339.79570579 -456.89641129 335.3624892 -453 331 C-449.16640472 327.44810661 -445.11321388 324.21591186 -441 321 C-439.81736034 320.06554441 -438.63507253 319.13064337 -437.453125 318.1953125 C-435.07568921 316.3185604 -432.69248395 314.44948701 -430.3046875 312.5859375 C-426.71536236 309.78286498 -423.16321649 306.93476153 -419.61328125 304.08203125 C-417.66046854 302.52620289 -415.70054781 300.98289149 -413.73046875 299.44921875 C-407.78872011 294.82040355 -401.91667979 290.14068077 -396.1875 285.25 C-381.82438583 273 -381.82438583 273 -379 273 C-378.67 272.01 -378.34 271.02 -378 270 C-376.622748 269.04521794 -375.23803568 268.09946235 -373.81835938 267.20898438 C-369.47377922 264.32037523 -365.56699693 260.77067664 -361.5703125 257.42578125 C-360.88195312 256.85730469 -360.19359375 256.28882813 -359.484375 255.703125 C-358.86272461 255.18395508 -358.24107422 254.66478516 -357.60058594 254.12988281 C-356 253 -356 253 -354 253 C-354 252.34 -354 251.68 -354 251 C-352.3828125 249.5546875 -352.3828125 249.5546875 -350.125 247.875 C-349.29355469 247.2459375 -348.46210938 246.616875 -347.60546875 245.96875 C-346.31576172 244.99421875 -346.31576172 244.99421875 -345 244 C-339.72158178 239.84290379 -334.50931024 235.60361047 -329.30151367 231.35864258 C-323.26462691 226.44105482 -317.21811864 221.53531555 -311.125 216.6875 C-310.5362207 216.2133667 -309.94744141 215.7392334 -309.34082031 215.25073242 C-305.23090913 212 -305.23090913 212 -303 212 C-303 211.34 -303 210.68 -303 210 C-301.58227539 208.70654297 -301.58227539 208.70654297 -299.59765625 207.2421875 C-298.87642578 206.70287598 -298.15519531 206.16356445 -297.41210938 205.60791016 C-296.63673828 205.0360498 -295.86136719 204.46418945 -295.0625 203.875 C-289.48066038 199.69092113 -284.08785603 195.45504642 -278.94140625 190.73828125 C-276.30206881 188.37509179 -273.50814965 186.24893762 -270.6953125 184.09765625 C-267.18955858 181.36926515 -263.75361863 178.55919299 -260.3125 175.75 C-254.93519331 171.37263461 -249.5515888 167.00370004 -244.125 162.6875 C-243.53630127 162.21344727 -242.94760254 161.73939453 -242.34106445 161.25097656 C-238.23100575 158 -238.23100575 158 -236 158 C-236 157.34 -236 156.68 -236 156 C-233.525 155.01 -233.525 155.01 -231 154 C-231 153.34 -231 152.68 -231 152 C-229.09583238 150.39856173 -227.18751801 148.91080104 -225.1875 147.4375 C-223.98070334 146.53006375 -222.77499013 145.62118501 -221.5703125 144.7109375 C-220.96477539 144.25428711 -220.35923828 143.79763672 -219.73535156 143.32714844 C-217.29683672 141.46224035 -214.92820586 139.51862096 -212.5625 137.5625 C-208.44471919 134.16293677 -204.27209262 130.84668088 -200.0625 127.5625 C-195.64496098 124.11292614 -191.2919459 120.60614895 -187 117 C-182.12565628 112.9045128 -177.15857916 108.95134221 -172.140625 105.03515625 C-168.55608266 102.23399071 -165.01155233 99.39277659 -161.5 96.5 C-157.4015511 93.12374474 -153.24814544 89.82912329 -149.0625 86.5625 C-144.64502277 83.11284316 -140.29194994 79.60615235 -136 76 C-131.80949345 72.48019622 -127.56364382 69.05356838 -123.25 65.6875 C-116.10810746 60.11290558 -109.07798669 54.40687566 -102.05859375 48.67919922 C-81.21092507 31.67371236 -81.21092507 31.67371236 -74 26 C-73.29359375 25.43539062 -72.5871875 24.87078125 -71.859375 24.2890625 C-70 23 -70 23 -68 23 C-68 22.34 -68 21.68 -68 21 C-66.3828125 19.5546875 -66.3828125 19.5546875 -64.125 17.875 C-60.60299975 15.21541688 -57.12494255 12.51834155 -53.6875 9.75 C-52.12892538 8.495109 -50.56671492 7.24471306 -49 6 C-48.28457031 5.42765625 -47.56914063 4.8553125 -46.83203125 4.265625 C-45 3 -45 3 -43 3 C-43 2.34 -43 1.68 -43 1 C-38.60418196 -3.14183744 -33.97561097 -6.70095414 -28 -8 C-26.9275 -8.2475 -25.855 -8.495 -24.75 -8.75 C-15.071082 -9.3952612 -7.49261081 -6.10559393 0 0 Z " fill="#4DB554" transform="translate(561,197)"/>
<path d="M0 0 C4.40395497 2.20197748 7.8326602 4.63914259 11.4375 8 C15.76899175 12.02020718 20.31128733 15.56455996 25.0625 19.0625 C30.18719581 22.84039643 35.05708497 26.70421956 39.74609375 31.01953125 C42.47936443 33.4212093 45.35037759 35.61839841 48.25 37.8125 C52.89279848 41.32563726 57.39075389 44.96232777 61.8125 48.75 C67.12759031 53.29928374 72.57729369 57.54676491 78.26171875 61.62109375 C79.00035156 62.15863281 79.73898437 62.69617188 80.5 63.25 C81.1703125 63.72953125 81.840625 64.2090625 82.53125 64.703125 C83.25828125 65.34507812 83.25828125 65.34507812 84 66 C84 66.66 84 67.32 84 68 C84.74121094 68.25652344 85.48242188 68.51304687 86.24609375 68.77734375 C89.12570491 70.05580941 90.79448312 71.39936251 93.0625 73.5625 C96.50875294 76.72917282 100.04450947 79.59832635 103.8125 82.375 C110.08705593 87.00925324 116.03760589 91.97444012 122 97 C129.06272619 102.89148612 129.06272619 102.89148612 136.35546875 108.4921875 C136.91105469 108.90138428 137.46664062 109.31058105 138.0390625 109.73217773 C139.60805713 110.87941211 141.18469805 112.01616746 142.76171875 113.15234375 C143.50035156 113.76207031 144.23898437 114.37179687 145 115 C145 115.66 145 116.32 145 117 C145.6909375 117.2165625 146.381875 117.433125 147.09375 117.65625 C150.77616922 119.35887394 153.51249343 121.81681139 156.5 124.5 C161.19614517 128.62791722 165.95295874 132.5997391 170.9375 136.375 C172.00661322 137.19127162 173.07562792 138.0076723 174.14453125 138.82421875 C175.84763973 140.12193616 177.55267941 141.41713455 179.26171875 142.70703125 C183.95894357 146.43920778 186.3668586 150.05887265 187.34765625 156.1640625 C187.76276909 162.35882338 185.73634248 166.18727092 182 171 C179.59284885 173.38330134 177.00097319 175.44386587 174.3125 177.5 C173.60279053 178.05896973 172.89308105 178.61793945 172.16186523 179.19384766 C170.75307359 180.30248383 169.34049976 181.40633399 167.92382812 182.50488281 C165.4452546 184.43112447 163.0038822 186.40193326 160.5625 188.375 C159.04221604 189.58402447 157.52139612 190.79237535 156 192 C155.16339844 192.67289063 154.32679688 193.34578125 153.46484375 194.0390625 C152.65144531 194.68617188 151.83804688 195.33328125 151 196 C150.278125 196.5775 149.55625 197.155 148.8125 197.75 C147 199 147 199 145 199 C145 199.66 145 200.32 145 201 C143.24003752 202.48142929 141.41233116 203.88243816 139.5625 205.25 C133.12922167 210.06927242 126.92034543 215.12811672 120.73852539 220.26464844 C120.05008545 220.83602539 119.36164551 221.40740234 118.65234375 221.99609375 C117.73956665 222.75684204 117.73956665 222.75684204 116.80834961 223.53295898 C111.30204693 228 111.30204693 228 109 228 C109 228.66 109 229.32 109 230 C107.63671875 231.19140625 107.63671875 231.19140625 105.6875 232.5625 C101.14560308 235.84950561 96.834878 239.37657949 92.515625 242.94921875 C86.32 248 86.32 248 84 248 C84 248.66 84 249.32 84 250 C82.3828125 251.4453125 82.3828125 251.4453125 80.125 253.125 C79.29355469 253.7540625 78.46210937 254.383125 77.60546875 255.03125 C76.31576172 256.00578125 76.31576172 256.00578125 75 257 C69.72279481 261.15614088 64.5120244 265.39480109 59.30493164 269.63818359 C53.57381957 274.30777687 47.82627046 278.94950637 42 283.5 C32.2508411 291.11683606 22.69378466 298.97122513 13.125 306.8125 C9.02382853 310.17021988 4.90842964 313.50821665 0.7578125 316.8046875 C-1.38157216 318.50771041 -3.50918694 320.22282846 -5.6328125 321.9453125 C-6.90082406 322.96381264 -8.16905215 323.98204327 -9.4375 325 C-10.04118408 325.4935498 -10.64486816 325.98709961 -11.2668457 326.49560547 C-15.66005393 330 -15.66005393 330 -19 330 C-18.67 329.01 -18.34 328.02 -18 327 C-15.9375 326.3125 -15.9375 326.3125 -14 326 C-14 325.34 -14 324.68 -14 324 C-13.38125 323.731875 -12.7625 323.46375 -12.125 323.1875 C-9.7004767 322.04443152 -9.7004767 322.04443152 -8 319 C-6.23830564 317.97501419 -4.47495273 316.95203139 -2.6875 315.97265625 C-0.76244736 314.8630773 0.67385509 313.79419605 2 312 C2 311.01 2 310.02 2 309 C2.99 309 3.98 309 5 309 C5.433125 308.030625 5.86625 307.06125 6.3125 306.0625 C8 303 8 303 11 302 C13.65960237 301.3033164 16.33006123 300.65654232 19 300 C19.185625 298.7934375 19.185625 298.7934375 19.375 297.5625 C19.58125 296.716875 19.7875 295.87125 20 295 C20.66 294.67 21.32 294.34 22 294 C22.66 294.33 23.32 294.66 24 295 C24 294.34 24 293.68 24 293 C24.66 293 25.32 293 26 293 C26 292.34 26 291.68 26 291 C26.66 291 27.32 291 28 291 C28.33 290.01 28.66 289.02 29 288 C30.65 287.67 32.3 287.34 34 287 C34.33 285.68 34.66 284.36 35 283 C35.763125 282.896875 36.52625 282.79375 37.3125 282.6875 C40.21894395 281.94399108 41.03566029 281.15141968 43 279 C43.66 279 44.32 279 45 279 C44.505 277.515 44.505 277.515 44 276 C45.093125 275.649375 46.18625 275.29875 47.3125 274.9375 C50.46435287 273.62316459 51.62316459 272.46435287 52.9375 269.3125 C53.288125 268.219375 53.63875 267.12625 54 266 C54.99 266 55.98 266 57 266 C57.33 265.01 57.66 264.02 58 263 C60.47739354 262.09162237 62.33579484 262 65 262 C69.3056209 259.7126389 70.15813507 256.32437852 72 252 C72.99 251.67 73.98 251.34 75 251 C75.598125 250.690625 76.19625 250.38125 76.8125 250.0625 C79.46831616 248.77253215 82.18945718 247.89426363 85 247 C85.12375 246.030625 85.2475 245.06125 85.375 244.0625 C85.58125 243.051875 85.7875 242.04125 86 241 C86.66 240.67 87.32 240.34 88 240 C88 240.66 88 241.32 88 242 C89.96756452 241.96877057 89.96756452 241.96877057 92 241 C93.3045656 238.00384054 93.3045656 238.00384054 94 235 C94.66 235.66 95.32 236.32 96 237 C96.33 236.01 96.66 235.02 97 234 C97.66 234 98.32 234 99 234 C99.66 232.68 100.32 231.36 101 230 C102.32 230 103.64 230 105 230 C105.33 228.35 105.66 226.7 106 225 C107.65 225.33 109.3 225.66 111 226 C111 225.34 111 224.68 111 224 C111.66 224 112.32 224 113 224 C113.33 223.01 113.66 222.02 114 221 C114.66 221 115.32 221 116 221 C116.37705078 220.06800781 116.37705078 220.06800781 116.76171875 219.1171875 C118.22584875 216.6138485 119.16598846 216.18765282 121.8125 215.125 C124.84797475 213.74673038 126.6315936 212.55019034 128.625 209.875 C131.27989337 206.66118171 133.00485082 205.92910446 137 205 C136.67 204.01 136.34 203.02 136 202 C139.32307692 198.06153846 139.32307692 198.06153846 142.75 197.75 C143.4925 197.8325 144.235 197.915 145 198 C144.67 197.01 144.34 196.02 144 195 C144.56589844 194.81824219 145.13179687 194.63648438 145.71484375 194.44921875 C146.81505859 194.07216797 146.81505859 194.07216797 147.9375 193.6875 C148.66839844 193.44386719 149.39929688 193.20023438 150.15234375 192.94921875 C152.35932024 192.08759559 152.35932024 192.08759559 153 189 C154.32 189 155.64 189 157 189 C157 187.02 157 185.04 157 183 C158.3303125 183.1546875 158.3303125 183.1546875 159.6875 183.3125 C164.08071806 182.89804547 165.2103565 181.31741389 168 178 C168.45375 177.29875 168.9075 176.5975 169.375 175.875 C171 174 171 174 174.5625 172.5625 C178.10967254 171.34691556 178.10967254 171.34691556 179.4375 168.5625 C180.1429382 165.78608902 180.1429382 165.78608902 180 162 C180.66 162 181.32 162 182 162 C182.07199966 153.37559936 182.07199966 153.37559936 178.6875 145.75 C176.21540326 143.92388643 176.21540326 143.92388643 173.875 143.5 C172 143 172 143 170.6875 140.75 C167.95462524 136.29642632 163.9223601 133.6407867 159 132 C158.54625 131.236875 158.0925 130.47375 157.625 129.6875 C155.01889936 125.37741047 151.97901899 123.1342166 147.1875 121.75 C145.6096875 121.37875 145.6096875 121.37875 144 121 C144 120.01 144 119.02 144 118 C143.0409375 117.814375 143.0409375 117.814375 142.0625 117.625 C141.0415625 117.315625 141.0415625 117.315625 140 117 C139.67 116.34 139.34 115.68 139 115 C138.01 114.34 137.02 113.68 136 113 C136.33 112.34 136.66 111.68 137 111 C136.13375 110.814375 135.2675 110.62875 134.375 110.4375 C131.00909823 109.00387517 130.25828187 108.36193031 128.125 105.625 C124.95901526 101.59173753 121.67490951 100.0150472 117 98 C117 97.01 117 96.02 117 95 C116.34 95 115.68 95 115 95 C115 94.34 115 93.68 115 93 C113.68 93 112.36 93 111 93 C109.62689293 91.70766393 108.28965176 90.37562854 107 89 C106.34 89 105.68 89 105 89 C103.375 87.625 103.375 87.625 102 86 C102 85.34 102 84.68 102 84 C100.7934375 83.5978125 100.7934375 83.5978125 99.5625 83.1875 C98.716875 82.795625 97.87125 82.40375 97 82 C96.67 81.01 96.34 80.02 96 79 C93.98491642 78.26676204 93.98491642 78.26676204 92 78 C92 77.01 92 76.02 92 75 C90.02 75.33 88.04 75.66 86 76 C85.9175 74.88625 85.835 73.7725 85.75 72.625 C85.41470595 69.0015751 85.41470595 69.0015751 83.1875 67.625 C81.02370092 66.97712346 81.02370092 66.97712346 78.875 66.5625 C77 66 77 66 75 63 C73.515 62.505 73.515 62.505 72 62 C71.566875 61.236875 71.13375 60.47375 70.6875 59.6875 C67.20741832 54.14514769 60.74310802 51.74036626 55 49 C55 48.01 55 47.02 55 46 C53.515 45.505 53.515 45.505 52 45 C51.01 43.9790625 51.01 43.9790625 50 42.9375 C48.10497717 40.65210239 48.10497717 40.65210239 45 41 C45 40.34 45 39.68 45 39 C44.01 39.33 43.02 39.66 42 40 C41.34 37.69 40.68 35.38 40 33 C38.35 33 36.7 33 35 33 C34.938125 32.38125 34.87625 31.7625 34.8125 31.125 C34.544375 30.42375 34.27625 29.7225 34 29 C32.34795544 28.29788106 30.68076231 27.63028587 29 27 C28.505 25.515 28.505 25.515 28 24 C24.99992729 22.29144978 24.99992729 22.29144978 22 21 C22 20.34 22 19.68 22 19 C21.34 19.66 20.68 20.32 20 21 C19.01 21.495 19.01 21.495 18 22 C18.33 20.02 18.66 18.04 19 16 C18.030625 15.71125 17.06125 15.4225 16.0625 15.125 C13 14 13 14 12 12 C10.02 12.99 10.02 12.99 8 14 C6 12 6 12 5.875 8.875 C5.91625 7.92625 5.9575 6.9775 6 6 C4.35 6.33 2.7 6.66 1 7 C1 6.01 1 5.02 1 4 C0.6937566 2.66018514 0.36548445 1.32488113 0 0 Z " fill="#1D924E" transform="translate(789,382)"/>
<path d="M0 0 C0 0.66 0 1.32 0 2 C0.99 2.495 0.99 2.495 2 3 C1.34 3 0.68 3 0 3 C0 3.66 0 4.32 0 5 C-0.721875 5.268125 -1.44375 5.53625 -2.1875 5.8125 C-6.81348122 7.76569207 -9.69469189 9.34176253 -12.375 13.625 C-14.48333376 16.82454804 -14.77272742 16.9441133 -18.8125 17.9375 C-20.3903125 17.9684375 -20.3903125 17.9684375 -22 18 C-22 18.99 -22 19.98 -22 21 C-22.99 21.33 -23.98 21.66 -25 22 C-25 23.32 -25 24.64 -25 26 C-26.98 25.67 -28.96 25.34 -31 25 C-31.268125 25.639375 -31.53625 26.27875 -31.8125 26.9375 C-33 29 -33 29 -36 30 C-36.73323796 32.01508358 -36.73323796 32.01508358 -37 34 C-37.928125 34.1546875 -37.928125 34.1546875 -38.875 34.3125 C-41.36526484 34.87525373 -41.36526484 34.87525373 -43 38 C-43.66 38 -44.32 38 -45 38 C-44.67 38.66 -44.34 39.32 -44 40 C-43.34 40 -42.68 40 -42 40 C-42 40.66 -42 41.32 -42 42 C-43.4540625 42.0928125 -43.4540625 42.0928125 -44.9375 42.1875 C-53.80351081 43.51292384 -59.77536096 49.08205689 -65 56 C-65.66 56.99 -66.32 57.98 -67 59 C-68.8046875 59.7734375 -68.8046875 59.7734375 -70.875 60.375 C-74.82763084 61.73326769 -76.76506843 63.3682362 -79 67 C-79 67.66 -79 68.32 -79 69 C-80.32 69 -81.64 69 -83 69 C-84.51073991 70.51073991 -85.98371019 72.05938021 -87.4375 73.625 C-90 76 -90 76 -93 76 C-93.309375 76.61875 -93.61875 77.2375 -93.9375 77.875 C-94.625 79.25 -95.3125 80.625 -96 82 C-96.66 82 -97.32 82 -98 82 C-98.33 82.66 -98.66 83.32 -99 84 C-99.99 84 -100.98 84 -102 84 C-103.85525719 85.19759261 -103.85525719 85.19759261 -105.625 86.8125 C-106.23601562 87.33457031 -106.84703125 87.85664063 -107.4765625 88.39453125 C-109.24613524 90.03237465 -109.24613524 90.03237465 -110 93 C-111.64784417 93.67258946 -113.29752331 94.34110182 -114.95703125 94.984375 C-120.83468445 97.90634409 -126.09524997 103.51805299 -130.0625 108.6875 C-130.701875 109.450625 -131.34125 110.21375 -132 111 C-132.66 111 -133.32 111 -134 111 C-134.66 111.66 -135.32 112.32 -136 113 C-137.73638246 114.1575883 -139.49757682 115.28240847 -141.3125 116.3125 C-147.4184684 120.06961641 -147.4184684 120.06961641 -151 126 C-151.7425 126.061875 -152.485 126.12375 -153.25 126.1875 C-156.81867077 127.24188 -157.82422624 129.07395942 -160 132 C-160.66 132 -161.32 132 -162 132 C-162.2475 132.639375 -162.495 133.27875 -162.75 133.9375 C-164 136 -164 136 -165.9375 136.5625 C-166.9584375 136.7790625 -166.9584375 136.7790625 -168 137 C-169.81104764 138.05967596 -169.81104764 138.05967596 -171 140 C-171.144375 141.134375 -171.28875 142.26875 -171.4375 143.4375 C-172.08607402 147.54513543 -173.12651283 148.21920596 -176 151 C-176.3858223 154.16374283 -176.01428828 155.95713516 -175 159 C-174.01 158.67 -173.02 158.34 -172 158 C-171.731875 158.94875 -171.46375 159.8975 -171.1875 160.875 C-170.25013412 164.25267273 -170.25013412 164.25267273 -167 166 C-166.01 166 -165.02 166 -164 166 C-162.5 167.6796875 -162.5 167.6796875 -161 169.875 C-159.05642749 172.6992538 -157.92202301 174.05198466 -155 176 C-153.68 176 -152.36 176 -151 176 C-150.79375 176.721875 -150.5875 177.44375 -150.375 178.1875 C-148.33467997 182.36088187 -145.35136916 185.08584045 -141.05078125 186.7578125 C-139.38475019 187.23768351 -137.69327047 187.6274805 -136 188 C-136 188.99 -136 189.98 -136 191 C-134.35 190.67 -132.7 190.34 -131 190 C-130.67 190.66 -130.34 191.32 -130 192 C-130.33 192.99 -130.66 193.98 -131 195 C-129.68 195.33 -128.36 195.66 -127 196 C-127 196.66 -127 197.32 -127 198 C-125.8553125 198.3403125 -125.8553125 198.3403125 -124.6875 198.6875 C-121.37058222 200.30739008 -120.83158531 201.84967326 -119 205 C-116.11432111 207.94306455 -113.22979833 210.51194635 -109 211 C-109 211.99 -109 212.98 -109 214 C-108.34 214 -107.68 214 -107 214 C-107 214.66 -107 215.32 -107 216 C-106.4225 216.28875 -105.845 216.5775 -105.25 216.875 C-103.16666667 217.91666667 -101.08333333 218.95833333 -99 220 C-98.67 219.01 -98.34 218.02 -98 217 C-97.01 216.67 -96.02 216.34 -95 216 C-95 216.66 -95 217.32 -95 218 C-95.66 218.33 -96.32 218.66 -97 219 C-96.34304975 222.01425856 -96.34304975 222.01425856 -94.40625 223.02734375 C-93.7771875 223.32769531 -93.148125 223.62804687 -92.5 223.9375 C-89.1115925 225.732178 -89.1115925 225.732178 -88.0625 228.25 C-88.041875 228.8275 -88.02125 229.405 -88 230 C-86.68 230.33 -85.36 230.66 -84 231 C-84 231.99 -84 232.98 -84 234 C-82.35 233.67 -80.7 233.34 -79 233 C-79 233.99 -79 234.98 -79 236 C-75.37194888 240.50757866 -72.45425749 241.82359152 -67 243 C-67 243.99 -67 244.98 -67 246 C-66.01 245.67 -65.02 245.34 -64 245 C-63.95875 245.721875 -63.9175 246.44375 -63.875 247.1875 C-62.26351156 252.36728426 -57.62327717 254.79214927 -53.0625 257.25 C-49.42974402 258.9965173 -46.00101169 259.5100802 -42 260 C-41.67 260.66 -41.34 261.32 -41 262 C-42.32 262 -43.64 262 -45 262 C-44.00310405 264.49223987 -43.38477686 265.76416902 -41.0625 267.1875 C-39.39484226 267.84445608 -37.70041355 268.43319548 -36 269 C-36.33 269.99 -36.66 270.98 -37 272 C-36.195625 272.28875 -35.39125 272.5775 -34.5625 272.875 C-32 274 -32 274 -31 276 C-28.47266765 276.65555119 -28.47266765 276.65555119 -26 277 C-26 277.99 -26 278.98 -26 280 C-23.69 280.66 -21.38 281.32 -19 282 C-18.67 283.32 -18.34 284.64 -18 286 C-16.68 286.33 -15.36 286.66 -14 287 C-14 287.66 -14 288.32 -14 289 C-13.01 289.33 -12.02 289.66 -11 290 C-11 290.99 -11 291.98 -11 293 C-10.13375 293.433125 -10.13375 293.433125 -9.25 293.875 C-7.7997845 294.60010775 -6.3609113 295.34859384 -4.9375 296.125 C-2.89863452 297.20579336 -2.89863452 297.20579336 0 297 C1 298.66666667 2 300.33333333 3 302 C3.99 302 4.98 302 6 302 C6.99 305.465 6.99 305.465 8 309 C2.44157551 306.22078776 -1.66835088 302.68431108 -6.21875 298.4765625 C-9.59960461 295.46608241 -13.15403439 292.74137475 -16.76245117 290.01098633 C-21.23058963 286.6189779 -25.59508264 283.11372746 -29.9375 279.5625 C-35.00002513 275.42368279 -40.09309876 271.33314703 -45.25 267.3125 C-50.61102196 263.13260526 -55.82722995 258.81354994 -61.0234375 254.4296875 C-65.16035587 251.05283287 -69.45982278 247.92628108 -73.796875 244.8125 C-74.52390625 244.214375 -75.2509375 243.61625 -76 243 C-76 242.34 -76 241.68 -76 241 C-76.73992187 240.74476563 -77.47984375 240.48953125 -78.2421875 240.2265625 C-81.14523223 238.93540663 -82.83779202 237.55784868 -85.125 235.375 C-89.45343824 231.37502672 -94.0601107 228.00387439 -98.91015625 224.6640625 C-99.94462891 223.84035156 -99.94462891 223.84035156 -101 223 C-101 222.34 -101 221.68 -101 221 C-101.53109375 220.76925781 -102.0621875 220.53851562 -102.609375 220.30078125 C-105.75459498 218.58941156 -108.46314557 216.4157282 -111.25 214.1875 C-112.16265625 213.46433594 -112.16265625 213.46433594 -113.09375 212.7265625 C-118.44371739 208.47486077 -123.74143971 204.15881328 -129.03613281 199.83862305 C-133.32230907 196.34616401 -137.64235286 192.90275944 -142 189.5 C-148.47194606 184.44370522 -154.85595335 179.28439955 -161.2109375 174.08203125 C-163.56924024 172.15364603 -165.94417742 170.25341933 -168.3515625 168.38671875 C-169.81722656 167.23623047 -169.81722656 167.23623047 -171.3125 166.0625 C-172.15425781 165.41410156 -172.99601562 164.76570312 -173.86328125 164.09765625 C-177.01219434 161.00631013 -178.68664982 157.82646456 -179.43359375 153.47265625 C-179.44279464 147.79570579 -178.89641129 143.3624892 -175 139 C-171.16640472 135.44810661 -167.11321388 132.21591186 -163 129 C-161.81736034 128.06554441 -160.63507253 127.13064337 -159.453125 126.1953125 C-157.07568921 124.3185604 -154.69248395 122.44948701 -152.3046875 120.5859375 C-148.71536236 117.78286498 -145.16321649 114.93476153 -141.61328125 112.08203125 C-139.66046854 110.52620289 -137.70054781 108.98289149 -135.73046875 107.44921875 C-129.78872011 102.82040355 -123.91667979 98.14068077 -118.1875 93.25 C-103.82438583 81 -103.82438583 81 -101 81 C-100.505 79.515 -100.505 79.515 -100 78 C-98.622748 77.04521794 -97.23803568 76.09946235 -95.81835938 75.20898438 C-91.47377922 72.32037523 -87.56699693 68.77067664 -83.5703125 65.42578125 C-82.88195312 64.85730469 -82.19359375 64.28882813 -81.484375 63.703125 C-80.86272461 63.18395508 -80.24107422 62.66478516 -79.60058594 62.12988281 C-78 61 -78 61 -76 61 C-76 60.34 -76 59.68 -76 59 C-74.3828125 57.5546875 -74.3828125 57.5546875 -72.125 55.875 C-71.29355469 55.2459375 -70.46210938 54.616875 -69.60546875 53.96875 C-68.31576172 52.99421875 -68.31576172 52.99421875 -67 52 C-61.72158178 47.84290379 -56.50931024 43.60361047 -51.30151367 39.35864258 C-45.26462691 34.44105482 -39.21811864 29.53531555 -33.125 24.6875 C-32.24183105 23.97630005 -32.24183105 23.97630005 -31.34082031 23.25073242 C-27.23090913 20 -27.23090913 20 -25 20 C-25 19.34 -25 18.68 -25 18 C-23.53466797 16.65893555 -23.53466797 16.65893555 -21.4921875 15.13671875 C-20.75226563 14.57919922 -20.01234375 14.02167969 -19.25 13.44726562 C-18.46625 12.86654297 -17.6825 12.28582031 -16.875 11.6875 C-15.35063568 10.54681043 -13.82718233 9.40490237 -12.3046875 8.26171875 C-11.20398926 7.43873291 -11.20398926 7.43873291 -10.08105469 6.59912109 C-8.1901275 5.1460975 -6.37579842 3.63891987 -4.5703125 2.08203125 C-2 0 -2 0 0 0 Z " fill="#19904A" transform="translate(283,389)"/>
<path d="M0 0 C1.98 0 3.96 0 6 0 C6.495 1.98 6.495 1.98 7 4 C-0.53152465 10.52446446 -8.07811801 16.95127238 -16 23 C-28.02627414 32.3571389 -39.85591463 41.94704434 -51.625 51.625 C-55.60510461 54.88738083 -59.63358142 58.08045987 -63.6875 61.25 C-72.63688596 68.24794156 -81.45154524 75.41434004 -90.2109375 82.6484375 C-95.02942749 86.62204158 -99.85571546 90.45615954 -105 94 C-105.66 93.01 -106.32 92.02 -107 91 C-105.02 90.01 -105.02 90.01 -103 89 C-103 88.01 -103 87.02 -103 86 C-101.35 86 -99.7 86 -98 86 C-97.505 85.01 -97.505 85.01 -97 84 C-94.27393089 81.63740678 -91.60078042 79.41106028 -88.625 77.375 C-88.08875 76.92125 -87.5525 76.4675 -87 76 C-87 75.01 -87 74.02 -87 73 C-86.236875 72.9175 -85.47375 72.835 -84.6875 72.75 C-81.42905571 71.84066671 -80.90053495 70.67802651 -79 68 C-78.01 68 -77.02 68 -76 68 C-76.33 67.01 -76.66 66.02 -77 65 C-76.01 64.505 -76.01 64.505 -75 64 C-75 64.66 -75 65.32 -75 66 C-74.566875 65.505 -74.13375 65.01 -73.6875 64.5 C-72 63 -72 63 -69 63 C-68.67 62.01 -68.34 61.02 -68 60 C-67.01 60.495 -67.01 60.495 -66 61 C-66 60.01 -66 59.02 -66 58 C-64.68 57.34 -63.36 56.68 -62 56 C-62 55.34 -62 54.68 -62 54 C-60.2984375 53.505 -60.2984375 53.505 -58.5625 53 C-56.59506575 52.27812632 -56.59506575 52.27812632 -55 51 C-54.030782 48.20799134 -54.04927909 46.00602421 -54 43 C-52.68 43.33 -51.36 43.66 -50 44 C-50 44.66 -50 45.32 -50 46 C-49.34 46 -48.68 46 -48 46 C-48 45.34 -48 44.68 -48 44 C-47.01 44 -46.02 44 -45 44 C-45 43.34 -45 42.68 -45 42 C-44.01 42 -43.02 42 -42 42 C-42 41.34 -42 40.68 -42 40 C-40.10056922 37.91062614 -38.53559113 36.26779557 -36 35 C-36 34.34 -36 33.68 -36 33 C-34.865625 32.566875 -33.73125 32.13375 -32.5625 31.6875 C-31.386875 31.130625 -30.21125 30.57375 -29 30 C-28.505 28.515 -28.505 28.515 -28 27 C-27.01 27 -26.02 27 -25 27 C-24.67 25.02 -24.34 23.04 -24 21 C-22.02 21.495 -22.02 21.495 -20 22 C-19.01 19.525 -19.01 19.525 -18 17 C-17.34 17 -16.68 17 -16 17 C-16 17.66 -16 18.32 -16 19 C-13.47636012 18.37466625 -13.47636012 18.37466625 -11 17 C-10.61781233 15.34385343 -10.28604898 13.67542976 -10 12 C-8.1875 10.1875 -8.1875 10.1875 -6 9 C-4.68 9 -3.36 9 -2 9 C-1.814375 8.0409375 -1.814375 8.0409375 -1.625 7.0625 C-1.41875 6.381875 -1.2125 5.70125 -1 5 C-0.34 4.67 0.32 4.34 1 4 C0.505 2.02 0.505 2.02 0 0 Z " fill="#39A351" transform="translate(711,752)"/>
<path d="M0 0 C3.85971713 0.58696159 5.94289581 2.37068 8.875 4.875 C9.84824219 5.69226563 10.82148437 6.50953125 11.82421875 7.3515625 C12.34161621 7.78629883 12.85901367 8.22103516 13.39208984 8.66894531 C16.11189066 10.92044152 18.90166611 13.08118402 21.6875 15.25 C31.45843833 22.88680605 41.04680613 30.74865849 50.625 38.625 C55.18433552 42.36216026 59.8128888 46.00344179 64.45751953 49.63330078 C69.7056508 53.74516547 74.87537152 57.94936682 80.04003906 62.1652832 C84.30231054 65.63826417 88.60087239 69.05797721 92.9375 72.4375 C101.09139392 78.79515656 109.04375491 85.397855 117 92 C116.67 92.66 116.34 93.32 116 94 C114.515 93.505 114.515 93.505 113 93 C112.67 92.34 112.34 91.68 112 91 C111.236875 91.185625 110.47375 91.37125 109.6875 91.5625 C107 92 107 92 104 91 C104.66 90.67 105.32 90.34 106 90 C106 88.68 106 87.36 106 86 C101.7362719 83.64089647 101.7362719 83.64089647 97 83 C97.495 81.515 97.495 81.515 98 80 C96.02 79.01 96.02 79.01 94 78 C94 77.01 94 76.02 94 75 C91.69 75 89.38 75 87 75 C86.67 73.35 86.34 71.7 86 70 C84.515 69.505 84.515 69.505 83 69 C82.34 68.01 81.68 67.02 81 66 C79.33927151 65.31867549 77.672233 64.65257873 76 64 C74.9805881 63.01979625 73.97753644 62.02196992 73 61 C71.515 60.505 71.515 60.505 70 60 C68.7890625 58.4765625 68.7890625 58.4765625 67.625 56.625 C65.4712754 53.42387134 63.4173348 51.85512461 60 50 C60 49.34 60 48.68 60 48 C56.846632 47.29925156 54.27275026 47 51 47 C50.9175 46.071875 50.835 45.14375 50.75 44.1875 C50.28806106 40.97005515 50.28806106 40.97005515 48.1875 39.1875 C46.09698262 37.91843163 46.09698262 37.91843163 43.9375 37.5625 C41.22935749 36.77626508 40.57344398 35.2946058 39 33 C36.91967375 30.64229691 35.51353879 29.19751492 32.5625 28.0625 C29.24535692 26.68709921 27.41940076 24.61556839 25 22 C23.22352072 19.84706477 23.22352072 19.84706477 21 19.625 C19 19 19 19 18 17.125 C17.67 16.42375 17.34 15.7225 17 15 C15.13344768 13.3916876 15.13344768 13.3916876 13 12 C10.75 10.4375 10.75 10.4375 9 9 C9 8.34 9 7.68 9 7 C6.69 6.67 4.38 6.34 2 6 C1.34 4.02 0.68 2.04 0 0 Z " fill="#39A552" transform="translate(606,236)"/>
<path d="M0 0 C0.99 0.495 0.99 0.495 2 1 C-0.05576732 2.79992512 -2.11896218 4.58985409 -4.1875 6.375 C-4.76564453 6.88289062 -5.34378906 7.39078125 -5.93945312 7.9140625 C-9.14626695 10.66793652 -11.89323459 12.71615243 -16 14 C-16 14.66 -16 15.32 -16 16 C-17.6171875 17.4453125 -17.6171875 17.4453125 -19.875 19.125 C-23.39700025 21.78458312 -26.87505745 24.48165845 -30.3125 27.25 C-31.87107462 28.504891 -33.43328508 29.75528694 -35 31 C-35.71542969 31.57234375 -36.43085937 32.1446875 -37.16796875 32.734375 C-39 34 -39 34 -41 34 C-41.33 34.99 -41.66 35.98 -42 37 C-44.36328125 38.7890625 -44.36328125 38.7890625 -47.3125 40.625 C-48.27800781 41.23601563 -49.24351562 41.84703125 -50.23828125 42.4765625 C-56.41323726 45.88283244 -63.08806377 45.59671392 -70 45 C-73.01620239 44.09019469 -75.40326847 42.76328276 -78 41 C-78.67289063 40.56816406 -79.34578125 40.13632812 -80.0390625 39.69140625 C-81.75041501 38.54255009 -83.38391477 37.27940081 -85 36 C-85 35.34 -85 34.68 -85 34 C-85.66 33.814375 -86.32 33.62875 -87 33.4375 C-90.50197091 31.75947227 -92.8777616 29.60916282 -95.73828125 27.015625 C-102.42443994 20.87566373 -102.42443994 20.87566373 -110 16 C-110 15.34 -110 14.68 -110 14 C-110.66 13.814375 -111.32 13.62875 -112 13.4375 C-117.0915448 10.99780145 -121.03222862 6.96777138 -125 3 C-123 1 -123 1 -120.375 0.875 C-119.59125 0.91625 -118.8075 0.9575 -118 1 C-118.33 2.65 -118.66 4.3 -119 6 C-118.4121875 6.26554688 -117.824375 6.53109375 -117.21875 6.8046875 C-114.30106969 8.3765364 -112.17126495 10.4872983 -109.78125 12.7578125 C-107.81510486 14.38134184 -107.81510486 14.38134184 -104 14 C-103.67 14.99 -103.34 15.98 -103 17 C-101.70154761 18.04489194 -100.36262749 19.04029999 -99 20 C-97.70159533 21.18012895 -96.41001102 22.367801 -95.125 23.5625 C-91.86457197 26.47555533 -89.17617581 27.67584669 -85 29 C-84.375 31 -84.375 31 -84 33 C-82.0162233 34.28436734 -82.0162233 34.28436734 -80 35 C-80 35.66 -80 36.32 -80 37 C-79.01 36.67 -78.02 36.34 -77 36 C-76.773125 36.61875 -76.54625 37.2375 -76.3125 37.875 C-74.59445355 40.65659901 -73.09004901 41.09559541 -70 42 C-69.01 42 -68.02 42 -67 42 C-66.67 42.33 -66.34 42.66 -66 43 C-63.66702567 43.04092937 -61.33294775 43.04241723 -59 43 C-58.505 42.01 -58.505 42.01 -58 41 C-57.34 41 -56.68 41 -56 41 C-53.47608101 40.74524194 -53.47608101 40.74524194 -51 40 C-50.34 39.01 -49.68 38.02 -49 37 C-48.34 37.33 -47.68 37.66 -47 38 C-46.67 37.01 -46.34 36.02 -46 35 C-44.33720673 33.9935725 -42.67016516 32.99414593 -41 32 C-40.525625 31.34 -40.05125 30.68 -39.5625 30 C-37.46280707 27.31239305 -35.07985447 26.37610519 -32 25 C-31.01 24.505 -31.01 24.505 -30 24 C-30 23.01 -30 22.02 -30 21 C-29.01 21 -28.02 21 -27 21 C-25.53171497 19.52235816 -25.53171497 19.52235816 -24.1875 17.625 C-21.42089312 14.19771087 -19.30088683 13.14690316 -15 12 C-13.29078411 10.4587688 -13.29078411 10.4587688 -12 9 C-11.34 9 -10.68 9 -10 9 C-10.495 7.02 -10.495 7.02 -11 5 C-10.01 4.67 -9.02 4.34 -8 4 C-8 3.01 -8 2.02 -8 1 C-7.34 1 -6.68 1 -6 1 C-6 1.99 -6 2.98 -6 4 C-5.34 4 -4.68 4 -4 4 C-4 3.34 -4 2.68 -4 2 C-2.125 0.9375 -2.125 0.9375 0 0 Z " fill="#2D9F4B" transform="translate(603,846)"/>
<path d="M0 0 C0.99 1.485 0.99 1.485 2 3 C1.030625 3.78761719 0.06125 4.57523438 -0.9375 5.38671875 C-1.57703613 5.90637207 -2.21657227 6.42602539 -2.87548828 6.96142578 C-4.31124161 8.12791349 -5.7471172 9.29425074 -7.18310547 10.46044922 C-10.83581724 13.42723555 -14.48689426 16.39596133 -18.1328125 19.37109375 C-24.94120615 24.92282118 -31.78229512 30.42327111 -38.70483398 35.83203125 C-47.87689672 43.01458002 -56.86471387 50.42889458 -65.875 57.8125 C-69.97617147 61.17021988 -74.09157036 64.50821665 -78.2421875 67.8046875 C-80.38157216 69.50771041 -82.50918694 71.22282846 -84.6328125 72.9453125 C-85.90082406 73.96381264 -87.16905215 74.98204327 -88.4375 76 C-89.04118408 76.4935498 -89.64486816 76.98709961 -90.2668457 77.49560547 C-94.66005393 81 -94.66005393 81 -98 81 C-97.67 80.01 -97.34 79.02 -97 78 C-94.9375 77.3125 -94.9375 77.3125 -93 77 C-93 76.34 -93 75.68 -93 75 C-92.38125 74.731875 -91.7625 74.46375 -91.125 74.1875 C-88.7004767 73.04443152 -88.7004767 73.04443152 -87 70 C-85.23830564 68.97501419 -83.47495273 67.95203139 -81.6875 66.97265625 C-79.76244736 65.8630773 -78.32614491 64.79419605 -77 63 C-77 62.01 -77 61.02 -77 60 C-76.01 60 -75.02 60 -74 60 C-73.566875 59.030625 -73.13375 58.06125 -72.6875 57.0625 C-71 54 -71 54 -68 53 C-65.34039763 52.3033164 -62.66993877 51.65654232 -60 51 C-59.814375 49.7934375 -59.814375 49.7934375 -59.625 48.5625 C-59.41875 47.716875 -59.2125 46.87125 -59 46 C-58.34 45.67 -57.68 45.34 -57 45 C-56.01 45.495 -56.01 45.495 -55 46 C-55 45.34 -55 44.68 -55 44 C-54.34 44 -53.68 44 -53 44 C-53 43.34 -53 42.68 -53 42 C-52.34 42 -51.68 42 -51 42 C-50.67 41.01 -50.34 40.02 -50 39 C-47.525 38.505 -47.525 38.505 -45 38 C-44.67 36.68 -44.34 35.36 -44 34 C-43.236875 33.896875 -42.47375 33.79375 -41.6875 33.6875 C-38.78105605 32.94399108 -37.96433971 32.15141968 -36 30 C-35.34 30 -34.68 30 -34 30 C-34.495 28.515 -34.495 28.515 -35 27 C-33.906875 26.649375 -32.81375 26.29875 -31.6875 25.9375 C-28.53564713 24.62316459 -27.37683541 23.46435287 -26.0625 20.3125 C-25.711875 19.219375 -25.36125 18.12625 -25 17 C-24.01 17 -23.02 17 -22 17 C-21.505 15.515 -21.505 15.515 -21 14 C-18.52260646 13.09162237 -16.66420516 13 -14 13 C-9.6943791 10.7126389 -8.84186493 7.32437852 -7 3 C-6.01 2.67 -5.02 2.34 -4 2 C-2.65909241 1.34870203 -1.32407669 0.68486725 0 0 Z " fill="#34A150" transform="translate(868,631)"/>
<path d="M0 0 C4.40395497 2.20197748 7.8326602 4.63914259 11.4375 8 C15.76899175 12.02020718 20.31128733 15.56455996 25.0625 19.0625 C30.18719581 22.84039643 35.05708497 26.70421956 39.74609375 31.01953125 C42.47936443 33.4212093 45.35037759 35.61839841 48.25 37.8125 C52.89279848 41.32563726 57.39075389 44.96232777 61.8125 48.75 C67.12759031 53.29928374 72.57729369 57.54676491 78.26171875 61.62109375 C79.00035156 62.15863281 79.73898437 62.69617188 80.5 63.25 C81.1703125 63.72953125 81.840625 64.2090625 82.53125 64.703125 C83.25828125 65.34507812 83.25828125 65.34507812 84 66 C84 66.66 84 67.32 84 68 C84.73089844 68.24878906 85.46179688 68.49757813 86.21484375 68.75390625 C89.24804391 70.11097617 91.14158722 71.67657797 93.5625 73.9375 C95.75015326 75.96591334 97.81784046 77.87470673 100.27734375 79.56640625 C100.84582031 80.03949219 101.41429687 80.51257813 102 81 C102 81.99 102 82.98 102 84 C99.5625 83.1875 99.5625 83.1875 97 82 C96.67 81.01 96.34 80.02 96 79 C93.98491642 78.26676204 93.98491642 78.26676204 92 78 C92 77.01 92 76.02 92 75 C90.02 75.33 88.04 75.66 86 76 C85.9175 74.88625 85.835 73.7725 85.75 72.625 C85.41470595 69.0015751 85.41470595 69.0015751 83.1875 67.625 C81.02370092 66.97712346 81.02370092 66.97712346 78.875 66.5625 C77 66 77 66 75 63 C73.515 62.505 73.515 62.505 72 62 C71.566875 61.236875 71.13375 60.47375 70.6875 59.6875 C67.20741832 54.14514769 60.74310802 51.74036626 55 49 C55 48.01 55 47.02 55 46 C54.01 45.67 53.02 45.34 52 45 C51.34 44.319375 50.68 43.63875 50 42.9375 C48.10497717 40.65210239 48.10497717 40.65210239 45 41 C45 40.34 45 39.68 45 39 C44.01 39.33 43.02 39.66 42 40 C41.34 37.69 40.68 35.38 40 33 C38.35 33 36.7 33 35 33 C34.938125 32.38125 34.87625 31.7625 34.8125 31.125 C34.544375 30.42375 34.27625 29.7225 34 29 C32.34795544 28.29788106 30.68076231 27.63028587 29 27 C28.67 26.01 28.34 25.02 28 24 C24.99992729 22.29144978 24.99992729 22.29144978 22 21 C22 20.34 22 19.68 22 19 C21.34 19.66 20.68 20.32 20 21 C19.34 21.33 18.68 21.66 18 22 C18.33 20.02 18.66 18.04 19 16 C18.030625 15.71125 17.06125 15.4225 16.0625 15.125 C13 14 13 14 12 12 C10.02 12.99 10.02 12.99 8 14 C6 12 6 12 5.875 8.875 C5.91625 7.92625 5.9575 6.9775 6 6 C4.35 6.33 2.7 6.66 1 7 C1 6.01 1 5.02 1 4 C0.6937566 2.66018514 0.36548445 1.32488113 0 0 Z " fill="#2F9C4F" transform="translate(789,382)"/>
<path d="M0 0 C0 0.66 0 1.32 0 2 C0.99 2.495 0.99 2.495 2 3 C1.34 3 0.68 3 0 3 C0 3.66 0 4.32 0 5 C-0.721875 5.268125 -1.44375 5.53625 -2.1875 5.8125 C-6.81348122 7.76569207 -9.69469189 9.34176253 -12.375 13.625 C-14.48333376 16.82454804 -14.77272742 16.9441133 -18.8125 17.9375 C-20.3903125 17.9684375 -20.3903125 17.9684375 -22 18 C-22 18.99 -22 19.98 -22 21 C-23.485 21.495 -23.485 21.495 -25 22 C-25 23.32 -25 24.64 -25 26 C-26.98 25.67 -28.96 25.34 -31 25 C-31.268125 25.639375 -31.53625 26.27875 -31.8125 26.9375 C-33 29 -33 29 -36 30 C-36.73323796 32.01508358 -36.73323796 32.01508358 -37 34 C-37.928125 34.1546875 -37.928125 34.1546875 -38.875 34.3125 C-41.36526484 34.87525373 -41.36526484 34.87525373 -43 38 C-43.66 38 -44.32 38 -45 38 C-44.67 38.66 -44.34 39.32 -44 40 C-43.34 40 -42.68 40 -42 40 C-42 40.66 -42 41.32 -42 42 C-42.969375 42.061875 -43.93875 42.12375 -44.9375 42.1875 C-53.80351081 43.51292384 -59.77536096 49.08205689 -65 56 C-65.66 56.99 -66.32 57.98 -67 59 C-68.8046875 59.7734375 -68.8046875 59.7734375 -70.875 60.375 C-74.82763084 61.73326769 -76.76506843 63.3682362 -79 67 C-79 67.66 -79 68.32 -79 69 C-80.32 69 -81.64 69 -83 69 C-83.99 69.99 -83.99 69.99 -85 71 C-86.66666667 72.66666667 -88.33333333 74.33333333 -90 76 C-90.99 75.67 -91.98 75.34 -93 75 C-91.93944763 71.81834289 -91.43156913 71.27482209 -88.91015625 69.30078125 C-88.29076172 68.81416016 -87.67136719 68.32753906 -87.03320312 67.82617188 C-86.38287109 67.32666016 -85.73253906 66.82714844 -85.0625 66.3125 C-84.41603516 65.80138672 -83.76957031 65.29027344 -83.10351562 64.76367188 C-78.26450893 61 -78.26450893 61 -76 61 C-76 60.34 -76 59.68 -76 59 C-74.3828125 57.5546875 -74.3828125 57.5546875 -72.125 55.875 C-71.29355469 55.2459375 -70.46210938 54.616875 -69.60546875 53.96875 C-68.31576172 52.99421875 -68.31576172 52.99421875 -67 52 C-61.72158178 47.84290379 -56.50931024 43.60361047 -51.30151367 39.35864258 C-45.26462691 34.44105482 -39.21811864 29.53531555 -33.125 24.6875 C-32.5362207 24.2133667 -31.94744141 23.7392334 -31.34082031 23.25073242 C-27.23090913 20 -27.23090913 20 -25 20 C-25 19.34 -25 18.68 -25 18 C-23.53466797 16.65893555 -23.53466797 16.65893555 -21.4921875 15.13671875 C-20.75226563 14.57919922 -20.01234375 14.02167969 -19.25 13.44726562 C-18.46625 12.86654297 -17.6825 12.28582031 -16.875 11.6875 C-15.35063568 10.54681043 -13.82718233 9.40490237 -12.3046875 8.26171875 C-11.20398926 7.43873291 -11.20398926 7.43873291 -10.08105469 6.59912109 C-8.1901275 5.1460975 -6.37579842 3.63891987 -4.5703125 2.08203125 C-2 0 -2 0 0 0 Z " fill="#309D4E" transform="translate(283,389)"/>
<path d="M0 0 C0.99 0 1.98 0 3 0 C1.57847097 3.43536181 -0.07260444 4.80445333 -3 7 C-4.2516467 9.08334635 -4.2516467 9.08334635 -5 11 C-6.32 11 -7.64 11 -9 11 C-9.226875 11.639375 -9.45375 12.27875 -9.6875 12.9375 C-11 15 -11 15 -13.625 15.75 C-14.40875 15.8325 -15.1925 15.915 -16 16 C-16 17.32 -16 18.64 -16 20 C-18.31 20.33 -20.62 20.66 -23 21 C-23.495 22.485 -23.495 22.485 -24 24 C-25.66279327 25.0064275 -27.32983484 26.00585407 -29 27 C-30.68538601 28.99665314 -30.68538601 28.99665314 -32 31 C-34 33 -34 33 -36.125 34.25 C-39.35427178 36.21564369 -42.26086156 38.45930039 -45.23046875 40.79296875 C-47 42 -47 42 -49 42 C-48.67 42.99 -48.34 43.98 -48 45 C-48.59941406 45.09410156 -49.19882812 45.18820312 -49.81640625 45.28515625 C-52.49470328 46.16195116 -53.26331785 47.20680301 -54.9375 49.4375 C-57.38860275 52.47810847 -59.20021192 53.83895364 -63 55 C-65.22189824 57.22189824 -65.92598892 59.08482708 -67 62 C-69.31 62 -71.62 62 -74 62 C-74.33 63.32 -74.66 64.64 -75 66 C-75 65.34 -75 64.68 -75 64 C-77.99826026 66.54066548 -77.99826026 66.54066548 -79.375 70.0625 C-80 72 -80 72 -83.0625 73.75 C-84.031875 74.1625 -85.00125 74.575 -86 75 C-86.24609375 72.7421875 -86.24609375 72.7421875 -86 70 C-84.34765625 68.0078125 -84.34765625 68.0078125 -82.0625 66.125 C-81.22976563 65.43019531 -80.39703125 64.73539062 -79.5390625 64.01953125 C-76.61352057 61.69260021 -73.68006547 59.38049745 -70.7109375 57.109375 C-67.11774992 54.31352299 -63.59149068 51.43871523 -60.0625 48.5625 C-52.9832476 42.7973262 -45.89855214 37.04202049 -38.703125 31.421875 C-32.0734665 26.24148217 -25.54195015 20.97867505 -19.1015625 15.5625 C-14.9923414 12.13770175 -10.76845596 8.85760761 -6.54296875 5.578125 C-4.25448694 3.79761283 -2.05265958 2.05265958 0 0 Z " fill="#36A74D" transform="translate(488,222)"/>
<path d="M0 0 C2.97 0.495 2.97 0.495 6 1 C6 1.99 6 2.98 6 4 C6.99 3.67 7.98 3.34 9 3 C9.061875 4.0828125 9.061875 4.0828125 9.125 5.1875 C10.73648844 10.36728426 15.37672283 12.79214927 19.9375 15.25 C23.57025598 16.9965173 26.99898831 17.5100802 31 18 C31.33 18.66 31.66 19.32 32 20 C30.68 20 29.36 20 28 20 C28.99689595 22.49223987 29.61522314 23.76416902 31.9375 25.1875 C33.60515774 25.84445608 35.29958645 26.43319548 37 27 C36.505 28.485 36.505 28.485 36 30 C37.2065625 30.433125 37.2065625 30.433125 38.4375 30.875 C41 32 41 32 42 34 C44.52733235 34.65555119 44.52733235 34.65555119 47 35 C47 35.99 47 36.98 47 38 C49.31 38.66 51.62 39.32 54 40 C54.495 41.98 54.495 41.98 55 44 C56.32 44.33 57.64 44.66 59 45 C59 45.66 59 46.32 59 47 C59.99 47.33 60.98 47.66 62 48 C62 48.99 62 49.98 62 51 C62.5775 51.28875 63.155 51.5775 63.75 51.875 C65.2002155 52.60010775 66.6390887 53.34859384 68.0625 54.125 C70.10136548 55.20579336 70.10136548 55.20579336 73 55 C74 56.66666667 75 58.33333333 76 60 C76.99 60 77.98 60 79 60 C79.99 63.465 79.99 63.465 81 67 C75.44157551 64.22078776 71.33164912 60.68431108 66.78125 56.4765625 C63.40039539 53.46608241 59.84596561 50.74137475 56.23754883 48.01098633 C51.76941037 44.6189779 47.40491736 41.11372746 43.0625 37.5625 C37.999971 33.42367963 32.90678507 29.33329972 27.75 25.3125 C22.32840964 21.08304777 17.03115676 16.72873839 11.77734375 12.29296875 C8.46049918 9.55458934 5.03421184 6.98922734 1.546875 4.47265625 C1.03640625 3.98667969 0.5259375 3.50070312 0 3 C0 2.01 0 1.02 0 0 Z " fill="#309F4F" transform="translate(210,631)"/>
<path d="M0 0 C1.65 0 3.3 0 5 0 C5.309375 1.0828125 5.309375 1.0828125 5.625 2.1875 C7.66532003 6.36088187 10.64863084 9.08584045 14.94921875 10.7578125 C16.61524981 11.23768351 18.30672953 11.6274805 20 12 C20 12.99 20 13.98 20 15 C21.65 14.67 23.3 14.34 25 14 C25.33 14.66 25.66 15.32 26 16 C25.67 16.99 25.34 17.98 25 19 C26.32 19.33 27.64 19.66 29 20 C29 20.66 29 21.32 29 22 C30.1446875 22.3403125 30.1446875 22.3403125 31.3125 22.6875 C34.62941778 24.30739008 35.16841469 25.84967326 37 29 C39.88567889 31.94306455 42.77020167 34.51194635 47 35 C47 35.99 47 36.98 47 38 C47.66 38 48.32 38 49 38 C49 38.66 49 39.32 49 40 C49.5775 40.28875 50.155 40.5775 50.75 40.875 C52.83333333 41.91666667 54.91666667 42.95833333 57 44 C57.33 43.01 57.66 42.02 58 41 C58.99 40.67 59.98 40.34 61 40 C61 40.66 61 41.32 61 42 C60.01 42.495 60.01 42.495 59 43 C59.65695025 46.01425856 59.65695025 46.01425856 61.59375 47.02734375 C62.2228125 47.32769531 62.851875 47.62804687 63.5 47.9375 C66.8884075 49.732178 66.8884075 49.732178 67.9375 52.25 C67.958125 52.8275 67.97875 53.405 68 54 C69.98 54.495 69.98 54.495 72 55 C72 55.99 72 56.98 72 58 C73.65 57.67 75.3 57.34 77 57 C77 57.99 77 58.98 77 60 C78.62339805 61.70884005 80.29319053 63.37446717 82 65 C82.99 66.485 82.99 66.485 84 68 C82.02 67.505 82.02 67.505 80 67 C80 66.34 80 65.68 80 65 C79.26007813 64.74476563 78.52015625 64.48953125 77.7578125 64.2265625 C74.85476777 62.93540663 73.16220798 61.55784868 70.875 59.375 C66.54656176 55.37502672 61.9398893 52.00387439 57.08984375 48.6640625 C56.40019531 48.11492188 55.71054688 47.56578125 55 47 C55 46.34 55 45.68 55 45 C54.20335937 44.65388672 54.20335937 44.65388672 53.390625 44.30078125 C50.24540502 42.58941156 47.53685443 40.4157282 44.75 38.1875 C44.1415625 37.70539062 43.533125 37.22328125 42.90625 36.7265625 C37.562829 32.48006329 32.27089089 28.17009885 26.98364258 23.85400391 C22.50740552 20.20541151 17.98892025 16.6167265 13.4375 13.0625 C3.70766267 5.44282962 3.70766267 5.44282962 0 2 C0 1.34 0 0.68 0 0 Z " fill="#24964F" transform="translate(127,565)"/>
<path d="M0 0 C0.66 0.33 1.32 0.66 2 1 C1.21718695 2.33855056 0.42348123 3.67073644 -0.375 5 C-0.81585938 5.7425 -1.25671875 6.485 -1.7109375 7.25 C-2.13632813 7.8275 -2.56171875 8.405 -3 9 C-3.66 9 -4.32 9 -5 9 C-5.33 9.66 -5.66 10.32 -6 11 C-6.99 11 -7.98 11 -9 11 C-10.85525719 12.19759261 -10.85525719 12.19759261 -12.625 13.8125 C-13.23601562 14.33457031 -13.84703125 14.85664063 -14.4765625 15.39453125 C-16.24613524 17.03237465 -16.24613524 17.03237465 -17 20 C-18.64784417 20.67258946 -20.29752331 21.34110182 -21.95703125 21.984375 C-27.83468445 24.90634409 -33.09524997 30.51805299 -37.0625 35.6875 C-37.701875 36.450625 -38.34125 37.21375 -39 38 C-39.66 38 -40.32 38 -41 38 C-41.66 38.66 -42.32 39.32 -43 40 C-44.73638246 41.1575883 -46.49757682 42.28240847 -48.3125 43.3125 C-50.48380477 44.67587741 -52.26144084 46.02451233 -54.1875 47.6875 C-57 50 -57 50 -59 50 C-57.49506981 46.26275669 -55.38337568 44.41731655 -52.25 41.9375 C-51.26257813 41.14988281 -50.27515625 40.36226563 -49.2578125 39.55078125 C-48.17286116 38.69926283 -47.08689485 37.84903629 -46 37 C-45.17000488 36.3510376 -45.17000488 36.3510376 -44.32324219 35.68896484 C-43.76024414 35.24891113 -43.19724609 34.80885742 -42.6171875 34.35546875 C-41.45310499 33.44533809 -40.28904275 32.53518151 -39.125 31.625 C-38.5379126 31.16697998 -37.9508252 30.70895996 -37.34594727 30.23706055 C-33.21366897 26.99772916 -29.18036491 23.65926067 -25.1875 20.25 C-10.82475923 8 -10.82475923 8 -8 8 C-7.67 7.01 -7.34 6.02 -7 5 C-5.03852126 3.61061923 -3.03833424 2.2739589 -1 1 C-0.67 0.67 -0.34 0.34 0 0 Z " fill="#21954B" transform="translate(190,462)"/>
<path d="M0 0 C-0.1875 1.8125 -0.1875 1.8125 -1 4 C-3.375 5.5625 -3.375 5.5625 -6 7 C-9.03610973 9.45224247 -10.36625627 12.49912057 -12 16 C-14.475 15.505 -14.475 15.505 -17 15 C-17.04125 15.556875 -17.0825 16.11375 -17.125 16.6875 C-18.49384592 20.30516422 -20.87541718 21.83682728 -24 24 C-25.66666667 24 -27.33333333 24 -29 24 C-31.20142332 26.4390706 -31.20142332 26.4390706 -33 29 C-33.66 29 -34.32 29 -35 29 C-35.33 29.99 -35.66 30.98 -36 32 C-36.66 32 -37.32 32 -38 32 C-38.20625 32.61875 -38.4125 33.2375 -38.625 33.875 C-40.54659813 36.84474256 -42.68964171 36.94068535 -46 38 C-46.70125 38.721875 -47.4025 39.44375 -48.125 40.1875 C-48.74375 40.785625 -49.3625 41.38375 -50 42 C-52.1171875 41.61328125 -52.1171875 41.61328125 -54 41 C-53.46632813 40.5875 -52.93265625 40.175 -52.3828125 39.75 C-47.48344729 35.95256814 -42.62598669 32.10796295 -37.79296875 28.2265625 C-35.17967861 26.14324029 -32.55085418 24.08173525 -29.91674805 22.02490234 C-22.28529622 16.06240817 -14.66242867 10.04618177 -7.4296875 3.60058594 C-3.32051564 0 -3.32051564 0 0 0 Z " fill="#3EAC51" transform="translate(389,304)"/>
<path d="M0 0 C-0.17026322 4.16536815 -0.6503071 5.66294051 -3.703125 8.60546875 C-4.8736592 9.48206918 -6.05683264 10.3419645 -7.25 11.1875 C-8.52668828 12.13540184 -9.8013796 13.0859983 -11.07421875 14.0390625 C-12.05140869 14.76464355 -12.05140869 14.76464355 -13.04833984 15.50488281 C-16.72453444 18.32112196 -20.18744649 21.39568949 -23.64746094 24.47143555 C-26.61181703 27.04587069 -29.25706863 28.78440578 -33 30 C-33 30.66 -33 31.32 -33 32 C-34.36328125 33.19140625 -34.36328125 33.19140625 -36.3125 34.5625 C-40.85439692 37.84950561 -45.165122 41.37657949 -49.484375 44.94921875 C-55.68 50 -55.68 50 -58 50 C-58 50.66 -58 51.32 -58 52 C-59.98 52.495 -59.98 52.495 -62 53 C-60.625 51 -60.625 51 -59 49 C-58.34 49 -57.68 49 -57 49 C-56.814375 47.5459375 -56.814375 47.5459375 -56.625 46.0625 C-56.41875 45.051875 -56.2125 44.04125 -56 43 C-55.01 42.505 -55.01 42.505 -54 42 C-54 42.66 -54 43.32 -54 44 C-52.03243548 43.96877057 -52.03243548 43.96877057 -50 43 C-48.6954344 40.00384054 -48.6954344 40.00384054 -48 37 C-47.34 37.66 -46.68 38.32 -46 39 C-45.67 38.01 -45.34 37.02 -45 36 C-44.34 36 -43.68 36 -43 36 C-42.34 34.68 -41.68 33.36 -41 32 C-39.68 32 -38.36 32 -37 32 C-36.67 30.35 -36.34 28.7 -36 27 C-34.35 27.33 -32.7 27.66 -31 28 C-31 27.34 -31 26.68 -31 26 C-30.34 26 -29.68 26 -29 26 C-28.505 24.515 -28.505 24.515 -28 23 C-27.34 23 -26.68 23 -26 23 C-25.62294922 22.06800781 -25.62294922 22.06800781 -25.23828125 21.1171875 C-23.77415125 18.6138485 -22.83401154 18.18765282 -20.1875 17.125 C-17.15202525 15.74673038 -15.3684064 14.55019034 -13.375 11.875 C-10.72010663 8.66118171 -8.99514918 7.92910446 -5 7 C-5.495 5.515 -5.495 5.515 -6 4 C-2.25 0 -2.25 0 0 0 Z " fill="#25944E" transform="translate(931,580)"/>
<path d="M0 0 C8.11164247 0.13297775 13.71368873 2.85869543 20 8 C20.33 8.99 20.66 9.98 21 11 C21.680625 11.2475 22.36125 11.495 23.0625 11.75 C26.60206694 13.2561987 28.77825869 15.34599546 31.59765625 17.921875 C35.42379824 21.23164336 39.55183948 24.13071626 43.65625 27.08203125 C44.4296875 27.71496094 45.203125 28.34789062 46 29 C46 29.66 46 30.32 46 31 C46.66 31.185625 47.32 31.37125 48 31.5625 C51.59615075 33.28565557 54.11186975 35.56593207 57.03515625 38.24609375 C58.9490684 39.9545362 60.92719584 41.49040766 63 43 C62.505 43.99 62.505 43.99 62 45 C61.01 44.67 60.02 44.34 59 44 C57.33378384 43.96125079 55.66605828 43.9549714 54 44 C53.505 42.02 53.505 42.02 53 40 C52.01 40.66 51.02 41.32 50 42 C50.66 40.02 51.32 38.04 52 36 C51.401875 35.896875 50.80375 35.79375 50.1875 35.6875 C47.67774646 34.89872032 46.82982914 33.82982914 45 32 C42.89667109 31.28552357 42.89667109 31.28552357 41 31 C41 30.01 41 29.02 41 28 C40.01 27.67 39.02 27.34 38 27 C37.34 26.34 36.68 25.68 36 25 C33.93125966 24.3574765 33.93125966 24.3574765 32 24 C32 23.01 32 22.02 32 21 C31.34 21 30.68 21 30 21 C28.19363264 19.41039672 27.08073852 18.16147703 26 16 C25.34 16 24.68 16 24 16 C24 15.34 24 14.68 24 14 C23.01 14 22.02 14 21 14 C20.319375 13.2884375 20.319375 13.2884375 19.625 12.5625 C17.53633317 10.55416651 15.8216552 10.38130476 13 10 C12 7 12 7 12 5 C7.545 4.01 7.545 4.01 3 3 C3 2.34 3 1.68 3 1 C2.01 0.67 1.02 0.34 0 0 Z " fill="#2AA04A" transform="translate(541,189)"/>
<path d="M0 0 C0.99 0 1.98 0 3 0 C4.2065625 1.2375 4.2065625 1.2375 5.4375 2.5 C7.88052115 5.46554923 7.88052115 5.46554923 12 5 C12 6.32 12 7.64 12 9 C12.99 8.67 13.98 8.34 15 8 C15.99 9.98 16.98 11.96 18 14 C19.65 14 21.3 14 23 14 C23.33 15.32 23.66 16.64 24 18 C27.465 17.505 27.465 17.505 31 17 C31.33 17.66 31.66 18.32 32 19 C30.02 19.99 30.02 19.99 28 21 C29.98 21.99 31.96 22.98 34 24 C34 24.66 34 25.32 34 26 C36.64846603 28.36214538 38.61516396 29.87172132 42 31 C42 31.99 42 32.98 42 34 C42.598125 34.144375 43.19625 34.28875 43.8125 34.4375 C45.56150404 34.8872439 47.28677023 35.42892341 49 36 C49.33 36.99 49.66 37.98 50 39 C50.99 39.33 51.98 39.66 53 40 C52.505 40.99 52.505 40.99 52 42 C47.56088281 40.55830506 44.49701999 38.11212144 41.0625 35.0625 C36.48113878 31.09115521 31.84395117 27.22846952 27.0625 23.5 C26.48765869 23.05132568 25.91281738 22.60265137 25.32055664 22.14038086 C24.14801575 21.22666389 22.97491668 20.31366276 21.80126953 19.40136719 C18.6943377 16.9842096 15.59709363 14.55474123 12.5 12.125 C11.93676025 11.68478516 11.37352051 11.24457031 10.79321289 10.79101562 C9.18991136 9.53419939 7.59413255 8.26841781 6 7 C5.42636719 6.55108398 4.85273438 6.10216797 4.26171875 5.63964844 C2.80320194 4.47232263 1.39649204 3.2408589 0 2 C0 1.34 0 0.68 0 0 Z " fill="#38A94D" transform="translate(338,735)"/>
<path d="M0 0 C0 1.66666667 0 3.33333333 0 5 C-4.38461538 8 -4.38461538 8 -7 8 C-7.33 8.99 -7.66 9.98 -8 11 C-9.33333333 11.66666667 -10.66666667 12.33333333 -12 13 C-12.45632813 13.6290625 -12.91265625 14.258125 -13.3828125 14.90625 C-15.11116004 17.14391735 -16.57770469 18.14207316 -19 19.5625 C-24.29131068 22.92261218 -28.26455048 27.1573332 -32.51953125 31.70703125 C-34.95520286 33.9585891 -35.8776839 34.45094865 -39 35 C-41.95278233 37.60943555 -43.7455037 39.2365111 -45 43 C-46.32 42.67 -47.64 42.34 -49 42 C-47.64272489 38.87784572 -46.21718037 37.06836881 -43.578125 34.93359375 C-42.88879883 34.37075684 -42.19947266 33.80791992 -41.48925781 33.22802734 C-40.3808252 32.34171631 -40.3808252 32.34171631 -39.25 31.4375 C-38.49299805 30.82342285 -37.73599609 30.2093457 -36.95605469 29.57666016 C-31.00162226 24.76097863 -24.99547548 20.00950976 -18.953125 15.3046875 C-17.02297948 13.798357 -15.11526142 12.26271785 -13.234375 10.6953125 C-11 9 -11 9 -9 9 C-9 8.34 -9 7.68 -9 7 C-7.35 6.34 -5.7 5.68 -4 5 C-4 4.34 -4 3.68 -4 3 C-2 1.375 -2 1.375 0 0 Z " fill="#37A34D" transform="translate(334,346)"/>
<path d="M0 0 C2.9375 0.8125 2.9375 0.8125 6 2 C6.33 2.99 6.66 3.98 7 5 C8.93618425 5.67156616 8.93618425 5.67156616 11 6 C11.66 6.33 12.32 6.66 13 7 C13.33 6.34 13.66 5.68 14 5 C14.66 5.33 15.32 5.66 16 6 C15.9175 6.763125 15.835 7.52625 15.75 8.3125 C15.69657929 11.14416344 15.69657929 11.14416344 18 12.6875 C18.99 13.3371875 18.99 13.3371875 20 14 C20 14.66 20 15.32 20 16 C20.721875 16.061875 21.44375 16.12375 22.1875 16.1875 C25.84657625 17.24456647 27.49211602 19.20550071 30 22 C30.66 21.67 31.32 21.34 32 21 C32.680625 22.2065625 32.680625 22.2065625 33.375 23.4375 C34.74725665 26.08856572 34.74725665 26.08856572 37 27 C37 27.66 37 28.32 37 29 C38.98 29.66 40.96 30.32 43 31 C43 31.99 43 32.98 43 34 C43.99 34 44.98 34 46 34 C47.6875 36 47.6875 36 49 38 C48.505 38.99 48.505 38.99 48 40 C47.06994141 39.23429688 47.06994141 39.23429688 46.12109375 38.453125 C40.61111263 33.92964705 35.07222229 29.44643489 29.5 25 C24.16183968 20.74022874 18.85516278 16.44572244 13.58203125 12.10546875 C10.05838769 9.23217998 6.48209027 6.42686858 2.8984375 3.62890625 C1 2 1 2 0 0 Z " fill="#38A24F" transform="translate(407,791)"/>
<path d="M0 0 C-1.5 2.5 -1.5 2.5 -4 5 C-6.01747172 5 -8.03776147 4.99332826 -10.05078125 4.859375 C-12.32742719 4.82949138 -12.32742719 4.82949138 -14.625 7.25 C-15.40875 8.1575 -16.1925 9.065 -17 10 C-18.0725 10.70125 -19.145 11.4025 -20.25 12.125 C-23.26003892 13.77064122 -23.26003892 13.77064122 -24 17 C-25.6635479 17.67441131 -27.33066942 18.3400321 -29 19 C-30.35368596 20.31266518 -31.68799596 21.64567325 -33 23 C-35.86040297 24.66087915 -38.92013704 25.80227551 -42 27 C-42 27.66 -42 28.32 -42 29 C-42.66 29 -43.32 29 -44 29 C-44 29.66 -44 30.32 -44 31 C-45.32 31.33 -46.64 31.66 -48 32 C-46.84128179 28.52384538 -45.94299204 27.94376037 -43.0625 25.8125 C-39.55875142 23.176293 -36.10219459 20.50100766 -32.6875 17.75 C-31.12892538 16.495109 -29.56671492 15.24471306 -28 14 C-27.28457031 13.42765625 -26.56914063 12.8553125 -25.83203125 12.265625 C-24 11 -24 11 -22 11 C-22 10.34 -22 9.68 -22 9 C-15.21914169 2.61092462 -9.41497571 -0.37659903 0 0 Z " fill="#2A9448" transform="translate(540,189)"/>
<path d="M0 0 C4.40395497 2.20197748 7.8326602 4.63914259 11.4375 8 C16.5788047 12.79058003 22.11479858 16.91475032 27.81811523 21.01367188 C28.48915283 21.50287109 29.16019043 21.99207031 29.8515625 22.49609375 C30.45822754 22.93107178 31.06489258 23.3660498 31.68994141 23.81420898 C32.12226074 24.20552002 32.55458008 24.59683105 33 25 C33 25.66 33 26.32 33 27 C32.01 27.33 31.02 27.66 30 28 C29.79375 27.401875 29.5875 26.80375 29.375 26.1875 C27.49073918 23.18981233 25.18867916 22.38638224 22 21 C22 20.34 22 19.68 22 19 C21.34 19.66 20.68 20.32 20 21 C19.34 21.33 18.68 21.66 18 22 C18.33 20.02 18.66 18.04 19 16 C18.030625 15.71125 17.06125 15.4225 16.0625 15.125 C13 14 13 14 12 12 C10.02 12.99 10.02 12.99 8 14 C6 12 6 12 5.875 8.875 C5.91625 7.92625 5.9575 6.9775 6 6 C4.35 6.33 2.7 6.66 1 7 C1 6.01 1 5.02 1 4 C0.6937566 2.66018514 0.36548445 1.32488113 0 0 Z " fill="#38A751" transform="translate(789,382)"/>
<path d="M0 0 C0.99 0 1.98 0 3 0 C1.57847097 3.43536181 -0.07260444 4.80445333 -3 7 C-4.2516467 9.08334635 -4.2516467 9.08334635 -5 11 C-6.32 11 -7.64 11 -9 11 C-9.3403125 11.9590625 -9.3403125 11.9590625 -9.6875 12.9375 C-11 15 -11 15 -13.625 15.75 C-14.800625 15.87375 -14.800625 15.87375 -16 16 C-16 17.32 -16 18.64 -16 20 C-18.31 20.33 -20.62 20.66 -23 21 C-23.33 21.99 -23.66 22.98 -24 24 C-25.63790712 25.04644066 -27.31008021 26.0398183 -29 27 C-29.886875 27.721875 -30.77375 28.44375 -31.6875 29.1875 C-34 31 -34 31 -36 31 C-36 30.34 -36 29.68 -36 29 C-34.59375 27.73046875 -34.59375 27.73046875 -32.5 26.1875 C-27.93748546 22.74218886 -23.4903044 19.17780618 -19.0625 15.5625 C-13.63923886 11.14174156 -8.20051652 6.74364919 -2.72265625 2.390625 C-1.07750981 1.11285933 -1.07750981 1.11285933 0 0 Z " fill="#309E4B" transform="translate(488,222)"/>
<path d="M0 0 C0.2475 0.639375 0.495 1.27875 0.75 1.9375 C1.81562433 4.18741541 1.81562433 4.18741541 4.125 4.75 C4.74375 4.8325 5.3625 4.915 6 5 C6 5.66 6 6.32 6 7 C6.99 7.33 7.98 7.66 9 8 C9 8.99 9 9.98 9 11 C9.5775 11.28875 10.155 11.5775 10.75 11.875 C12.2002155 12.60010775 13.6390887 13.34859384 15.0625 14.125 C17.10136548 15.20579336 17.10136548 15.20579336 20 15 C21.5 17.5 21.5 17.5 23 20 C23.99 20 24.98 20 26 20 C26.66 22.31 27.32 24.62 28 27 C22.46206126 24.23103063 18.36009867 20.71961476 13.8359375 16.515625 C10.14715406 13.24348101 6.25553386 10.29039704 2.29052734 7.36279297 C-0.37867141 5.36678842 -2.12749257 3.80876114 -4 1 C-2.68 0.67 -1.36 0.34 0 0 Z " fill="#37A550" transform="translate(263,671)"/>
<path d="M0 0 C0 3.93169105 -1.39419615 5.16427228 -4 8 C-4.66 8 -5.32 8 -6 8 C-6.33 8.99 -6.66 9.98 -7 11 C-7.66 11 -8.32 11 -9 11 C-9.20625 11.61875 -9.4125 12.2375 -9.625 12.875 C-11.54659813 15.84474256 -13.68964171 15.94068535 -17 17 C-17.70125 17.721875 -18.4025 18.44375 -19.125 19.1875 C-19.74375 19.785625 -20.3625 20.38375 -21 21 C-23.1171875 20.61328125 -23.1171875 20.61328125 -25 20 C-24.46632813 19.5875 -23.93265625 19.175 -23.3828125 18.75 C-15.48452239 12.62814192 -7.64432837 6.43732916 0 0 Z " fill="#39A94E" transform="translate(360,325)"/>
<path d="M0 0 C2.31 0 4.62 0 7 0 C4.59757773 3.17462943 2.38286724 5.85751741 -1 8 C-1.66 8 -2.32 8 -3 8 C-3 8.66 -3 9.32 -3 10 C-4.86328125 11.76171875 -4.86328125 11.76171875 -7.3125 13.6875 C-8.51326172 14.65236328 -8.51326172 14.65236328 -9.73828125 15.63671875 C-10.48464844 16.08660156 -11.23101563 16.53648437 -12 17 C-12.99 16.67 -13.98 16.34 -15 16 C-14.01 15.67 -13.02 15.34 -12 15 C-11.896875 14.38125 -11.79375 13.7625 -11.6875 13.125 C-11 11 -11 11 -8 9.375 C-6.515 8.694375 -6.515 8.694375 -5 8 C-4.67 7.34 -4.34 6.68 -4 6 C-3.01 6 -2.02 6 -1 6 C-0.67 4.02 -0.34 2.04 0 0 Z " fill="#3BA351" transform="translate(758,717)"/>
<path d="M0 0 C3.84130598 1.50908449 5.48803112 3.8029487 8 7 C11.46700403 10.32341983 11.46700403 10.32341983 16 11 C16 11.99 16 12.98 16 14 C18.475 14.495 18.475 14.495 21 15 C21.33 16.32 21.66 17.64 22 19 C18.61638481 18.38271885 16.47997439 17.13020282 13.75 15.0625 C13.04359375 14.53785156 12.3371875 14.01320313 11.609375 13.47265625 C11.07828125 12.98667969 10.5471875 12.50070312 10 12 C10 11.34 10 10.68 10 10 C9.46375 9.773125 8.9275 9.54625 8.375 9.3125 C5.15069671 7.53064818 2.70350705 5.51917702 0 3 C0 2.01 0 1.02 0 0 Z " fill="#32A745" transform="translate(315,715)"/>
<path d="M0 0 C-0.1875 1.8125 -0.1875 1.8125 -1 4 C-3.375 5.5625 -3.375 5.5625 -6 7 C-9.03610973 9.45224247 -10.36625627 12.49912057 -12 16 C-12.99 15.67 -13.98 15.34 -15 15 C-14.625 13.0625 -14.625 13.0625 -14 11 C-13.34 10.67 -12.68 10.34 -12 10 C-11.5875 9.2575 -11.175 8.515 -10.75 7.75 C-8.16307469 3.68483165 -5.09186097 0 0 0 Z " fill="#39A74E" transform="translate(389,304)"/>
<path d="M0 0 C3.66881155 0.70554068 6.70450534 2.27735506 10 4 C10 4.66 10 5.32 10 6 C10.99 5.67 11.98 5.34 13 5 C13.226875 5.61875 13.45375 6.2375 13.6875 6.875 C15.40554645 9.65659901 16.90995099 10.09559541 20 11 C20.99 11 21.98 11 23 11 C23.33 11.66 23.66 12.32 24 13 C21.72614677 13.77643769 20.42820191 14.13596514 18.10546875 13.3984375 C13.45197343 10.91530965 9.1420564 8.27912798 5 5 C5 4.34 5 3.68 5 3 C2.525 2.01 2.525 2.01 0 1 C0 0.67 0 0.34 0 0 Z " fill="#269C48" transform="translate(513,877)"/>
<path d="M0 0 C3.90053969 1.33439516 6.38673408 2.99144751 9.375 5.8125 C13.07987322 9.21949397 16.84228048 12.16921224 21 15 C19.1640625 15.6171875 19.1640625 15.6171875 17 16 C14.375 14.125 14.375 14.125 12 12 C11.34 11.67 10.68 11.34 10 11 C10 10.34 10 9.68 10 9 C9.34 9 8.68 9 8 9 C7.67 8.34 7.34 7.68 7 7 C3.76651288 4.69963815 3.76651288 4.69963815 0 4 C0 2.68 0 1.36 0 0 Z " fill="#35AA51" transform="translate(765,363)"/>
<path d="M0 0 C0.99 0.33 1.98 0.66 3 1 C-8.33712984 11.74259681 -8.33712984 11.74259681 -15 15 C-15.33 14.01 -15.66 13.02 -16 12 C-14.68 11.34 -13.36 10.68 -12 10 C-12 9.01 -12 8.02 -12 7 C-10.35 7 -8.7 7 -7 7 C-6.67 6.34 -6.34 5.68 -6 5 C-3.125 2.3125 -3.125 2.3125 0 0 Z " fill="#2FA648" transform="translate(620,831)"/>
<path d="M0 0 C0.99 0.33 1.98 0.66 3 1 C3 1.66 3 2.32 3 3 C4.32 3 5.64 3 7 3 C8.875 4.6875 8.875 4.6875 11 7 C12.05194506 7.88766145 13.11494806 8.76235083 14.1875 9.625 C17 12 17 12 18 14 C18.66 14 19.32 14 20 14 C20 14.99 20 15.98 20 17 C15.35787062 14.84795114 11.69559273 11.71363648 7.75 8.5 C6.63238281 7.60861328 6.63238281 7.60861328 5.4921875 6.69921875 C4.78835938 6.12816406 4.08453125 5.55710937 3.359375 4.96875 C2.71452148 4.44732422 2.06966797 3.92589844 1.40527344 3.38867188 C0.70966309 2.7012793 0.70966309 2.7012793 0 2 C0 1.34 0 0.68 0 0 Z " fill="#37A34F" transform="translate(292,698)"/>
<path d="M0 0 C-4.14010271 4.54075781 -8.82390176 7.71842138 -14 11 C-14.33 9.68 -14.66 8.36 -15 7 C-12 5 -12 5 -10 5 C-8.98133771 3.34467377 -7.98189187 1.67739862 -7 0 C-4.3333581 -1.33332095 -2.83319697 -0.67102033 0 0 Z " fill="#35AA48" transform="translate(734,743)"/>
<path d="M0 0 C4 3 8 6 12 9 C11.67 9.66 11.34 10.32 11 11 C10.01 10.67 9.02 10.34 8 10 C6.33378384 9.96125079 4.66605828 9.9549714 3 10 C2.67 8.68 2.34 7.36 2 6 C1.01 6.66 0.02 7.32 -1 8 C-0.34 6.02 0.32 4.04 1 2 C0.34 1.67 -0.32 1.34 -1 1 C-0.67 0.67 -0.34 0.34 0 0 Z " fill="#33A44D" transform="translate(592,223)"/>
<path d="M0 0 C3.56293298 0.61078851 6.7887515 1.30986921 10 3 C11 4.66666667 12 6.33333333 13 8 C15.56231169 10.46022756 18.25956147 12.74125376 21 15 C20.67 15.66 20.34 16.32 20 17 C19.05898437 16.18015625 18.11796875 15.3603125 17.1484375 14.515625 C15.89077886 13.42690558 14.6329577 12.33837387 13.375 11.25 C12.75753906 10.71117187 12.14007813 10.17234375 11.50390625 9.6171875 C8.61103085 7.12017926 5.74576339 4.75689039 2.5390625 2.671875 C1.70117188 2.12015625 0.86328125 1.5684375 0 1 C0 0.67 0 0.34 0 0 Z " fill="#1D9C46" transform="translate(151,586)"/>
<path d="M0 0 C1.98 0.66 3.96 1.32 6 2 C6 2.99 6 3.98 6 5 C10.455 5.99 10.455 5.99 15 7 C15 8.32 15 9.64 15 11 C15.66 11.66 16.32 12.32 17 13 C12.89313411 12.43554924 10.50085658 10.22847623 7.375 7.625 C6.41335938 6.83351563 5.45171875 6.04203125 4.4609375 5.2265625 C2 3 2 3 0 0 Z " fill="#2FA848" transform="translate(457,831)"/>
<path d="M0 0 C2.97 0.495 2.97 0.495 6 1 C6.33 1.99 6.66 2.98 7 4 C7.99 4.33 8.98 4.66 10 5 C10.99 5.33 11.98 5.66 13 6 C13.33 6.99 13.66 7.98 14 9 C14.66 9.33 15.32 9.66 16 10 C15.67 10.99 15.34 11.98 15 13 C4.46431765 5.28295475 4.46431765 5.28295475 0 1 C0 0.67 0 0.34 0 0 Z " fill="#399F4D" transform="translate(391,778)"/>
<path d="M0 0 C5.27112904 2.79692561 9.59398317 5.98235547 14 10 C13.67 10.99 13.34 11.98 13 13 C13 12.34 13 11.68 13 11 C11.68 11 10.36 11 9 11 C7.62689293 9.70766393 6.28965176 8.37562854 5 7 C4.34 7 3.68 7 3 7 C1.375 5.75 1.375 5.75 0 4 C0 2.68 0 1.36 0 0 Z " fill="#248B47" transform="translate(891,464)"/>
<path d="M0 0 C0.66 0 1.32 0 2 0 C2.04898438 0.65226563 2.09796875 1.30453125 2.1484375 1.9765625 C2.57242229 6.93279853 3.15665573 11.33019451 5 16 C4.34 16 3.68 16 3 16 C-0.39366878 10.62669111 -0.32712342 6.13053511 0 0 Z " fill="#148143" transform="translate(104,535)"/>
<path d="M0 0 C0.33 0.66 0.66 1.32 1 2 C1.66 2 2.32 2 3 2 C2.8125 3.875 2.8125 3.875 2 6 C-0.5625 7.25 -0.5625 7.25 -3 8 C-3 8.66 -3 9.32 -3 10 C-4.32 10.33 -5.64 10.66 -7 11 C-5.625 9 -5.625 9 -4 7 C-3.34 7 -2.68 7 -2 7 C-1.855625 6.030625 -1.71125 5.06125 -1.5625 4.0625 C-1 1 -1 1 0 0 Z " fill="#26A249" transform="translate(876,622)"/>
<path d="M0 0 C0 0.66 0 1.32 0 2 C0.66 2.33 1.32 2.66 2 3 C1.34 3 0.68 3 0 3 C0 3.66 0 4.32 0 5 C-1.175625 5.4640625 -1.175625 5.4640625 -2.375 5.9375 C-4.92330128 6.92875038 -4.92330128 6.92875038 -7 8 C-4.73913043 0 -4.73913043 0 0 0 Z " fill="#37A84F" transform="translate(283,389)"/>
<path d="M0 0 C0.66 0.66 1.32 1.32 2 2 C0.57277341 3.1998278 -0.86715776 4.3845576 -2.3125 5.5625 C-3.51326172 6.55443359 -3.51326172 6.55443359 -4.73828125 7.56640625 C-5.48464844 8.03949219 -6.23101563 8.51257813 -7 9 C-7.99 8.67 -8.98 8.34 -10 8 C-9.01 7.67 -8.02 7.34 -7 7 C-6.896875 6.38125 -6.79375 5.7625 -6.6875 5.125 C-6 3 -6 3 -2.9375 1.25 C-1.968125 0.8375 -0.99875 0.425 0 0 Z " fill="#31B142" transform="translate(753,725)"/>
<path d="M0 0 C1.48555383 0.92734572 2.96327506 1.86724813 4.4375 2.8125 C5.26121094 3.33457031 6.08492187 3.85664063 6.93359375 4.39453125 C9 6 9 6 10 9 C9.01 9.33 8.02 9.66 7 10 C7 9.01 7 8.02 7 7 C6.34 7 5.68 7 5 7 C5 6.34 5 5.68 5 5 C4.34 5 3.68 5 3 5 C2.67 5.66 2.34 6.32 2 7 C1.34 4.69 0.68 2.38 0 0 Z " fill="#30A340" transform="translate(745,346)"/>
<path d="M0 0 C0.66 0.33 1.32 0.66 2 1 C0.375 3.9375 0.375 3.9375 -2 7 C-5.25 7.875 -5.25 7.875 -8 8 C-6.6636586 3.99097581 -4.50572968 3.19108105 -1 1 C-0.67 0.67 -0.34 0.34 0 0 Z " fill="#258D47" transform="translate(190,462)"/>
<path d="M0 0 C1.98 0 3.96 0 6 0 C6.33 1.32 6.66 2.64 7 4 C5.02 4.99 5.02 4.99 3 6 C0.8614515 3.8614515 0.57344937 2.86724686 0 0 Z " fill="#3FA951" transform="translate(711,752)"/>
<path d="M0 0 C0 3 0 3 -1.625 5.625 C-4.43693229 8.43693229 -6.10240081 8.7342546 -10 9 C-6.85281112 5.7317654 -3.50647501 2.8689341 0 0 Z " fill="#2CA741" transform="translate(360,325)"/>
<path d="M0 0 C1.32 0.66 2.64 1.32 4 2 C-2.14285714 7.57142857 -2.14285714 7.57142857 -7 8 C-7 7.01 -7 6.02 -7 5 C-6.01 5 -5.02 5 -4 5 C-1.79857668 2.5609294 -1.79857668 2.5609294 0 0 Z " fill="#30984E" transform="translate(580,862)"/>
<path d="M0 0 C0.66 0.33 1.32 0.66 2 1 C2 1.99 2 2.98 2 4 C2.66 4 3.32 4 4 4 C4 4.66 4 5.32 4 6 C4.928125 6.4640625 4.928125 6.4640625 5.875 6.9375 C7.25 7.625 8.625 8.3125 10 9 C10 9.66 10 10.32 10 11 C6.03519703 9.32258336 3.15958323 6.87873138 0 4 C-0.33 3.01 -0.66 2.02 -1 1 C-0.67 0.67 -0.34 0.34 0 0 Z " fill="#24944D" transform="translate(172,599)"/>
<path d="M0 0 C0 1.66666667 0 3.33333333 0 5 C-6.75 9 -6.75 9 -9 9 C-9 8.34 -9 7.68 -9 7 C-7.35 6.34 -5.7 5.68 -4 5 C-4 4.34 -4 3.68 -4 3 C-2 1.375 -2 1.375 0 0 Z " fill="#31A442" transform="translate(334,346)"/>
<path d="M0 0 C0.33 1.32 0.66 2.64 1 4 C-0.98 4.99 -2.96 5.98 -5 7 C-5 5.35 -5 3.7 -5 2 C-3.35 1.34 -1.7 0.68 0 0 Z " fill="#3EA650" transform="translate(407,290)"/>
<path d="M0 0 C1.41750563 0.11509661 2.83401169 0.24253658 4.25 0.375 C5.03890625 0.44460937 5.8278125 0.51421875 6.640625 0.5859375 C9.085877 1.01507113 10.84836903 1.78600638 13 3 C12.67 3.66 12.34 4.32 12 5 C7.545 4.01 7.545 4.01 3 3 C3 2.34 3 1.68 3 1 C2.01 0.67 1.02 0.34 0 0 Z " fill="#2C914B" transform="translate(541,189)"/>
<path d="M0 0 C0.66 0.66 1.32 1.32 2 2 C1.67 2.99 1.34 3.98 1 5 C2.32 5.33 3.64 5.66 5 6 C4 7 4 7 1.4375 7.0625 C0.2309375 7.0315625 0.2309375 7.0315625 -1 7 C-1.66 5.35 -2.32 3.7 -3 2 C-2.01 1.34 -1.02 0.68 0 0 Z " fill="#259752" transform="translate(151,579)"/>
<path d="M0 0 C0.66 0.33 1.32 0.66 2 1 C0.92643323 2.15498897 -0.15929788 3.29867867 -1.25 4.4375 C-1.85328125 5.07558594 -2.4565625 5.71367187 -3.078125 6.37109375 C-5.10048016 8.08516306 -6.41270605 8.59358878 -9 9 C-7.86280581 5.58841744 -6.95657056 4.88145399 -4 3 C-3.34 3 -2.68 3 -2 3 C-2 2.34 -2 1.68 -2 1 C-1.34 0.67 -0.68 0.34 0 0 Z " fill="#239D47" transform="translate(209,447)"/>
<path d="M0 0 C2.94956528 1.36944102 5.52468811 2.87830409 8 5 C8 5.66 8 6.32 8 7 C6.02 7.33 4.04 7.66 2 8 C2.226875 7.4225 2.45375 6.845 2.6875 6.25 C3.26505193 3.87827523 3.26505193 3.87827523 1.5625 1.75 C1.046875 1.1725 0.53125 0.595 0 0 Z " fill="#3AA450" transform="translate(755,355)"/>
<path d="M0 0 C4.43458973 1.3937282 6.87378374 3.60582235 10 7 C5.25 7.125 5.25 7.125 3 6 C3 5.01 3 4.02 3 3 C2.01 2.67 1.02 2.34 0 2 C0 1.34 0 0.68 0 0 Z " fill="#33A849" transform="translate(724,330)"/>
<path d="M0 0 C0.55429687 0.42152344 1.10859375 0.84304688 1.6796875 1.27734375 C2.40414062 1.82519531 3.12859375 2.37304688 3.875 2.9375 C4.59429688 3.48277344 5.31359375 4.02804687 6.0546875 4.58984375 C7.94357079 6.03964624 7.94357079 6.03964624 10 7 C10 7.66 10 8.32 10 9 C6.59687262 7.94124926 3.98646769 6.99097846 1 5 C0.3125 2.375 0.3125 2.375 0 0 Z " fill="#369C4A" transform="translate(705,314)"/>
<path d="M0 0 C0.66 0.33 1.32 0.66 2 1 C0.375 3.9375 0.375 3.9375 -2 7 C-5.25 7.875 -5.25 7.875 -8 8 C-5.58443874 4.80800833 -3.31996462 2.25283313 0 0 Z " fill="#38A24E" transform="translate(399,294)"/>
<path d="M0 0 C3 0 3 0 5.5625 2.4375 C6.366875 3.283125 7.17125 4.12875 8 5 C8.66 5.33 9.32 5.66 10 6 C9.67 6.99 9.34 7.98 9 9 C7.68103535 8.07161713 6.37001311 7.13194268 5.0625 6.1875 C4.33160156 5.66542969 3.60070312 5.14335938 2.84765625 4.60546875 C1 3 1 3 0 0 Z " fill="#329C4C" transform="translate(338,735)"/>
<path d="M0 0 C-1.14099526 3.42298577 -2.00085621 4.14758766 -5 6 C-5.99 6 -6.98 6 -8 6 C-7.8125 4.125 -7.8125 4.125 -7 2 C-4.55683729 0.74709605 -2.75474605 0 0 0 Z " fill="#1F9F45" transform="translate(915,596)"/>
<path d="M0 0 C0.33 0.66 0.66 1.32 1 2 C0.34 2 -0.32 2 -1 2 C-0.67 2.66 -0.34 3.32 0 4 C0.66 4 1.32 4 2 4 C2 4.66 2 5.32 2 6 C-1.13349732 7.04449911 -1.98968256 6.93423645 -5 6 C-3.63016497 2.83884224 -3.0109362 2.0072908 0 0 Z " fill="#36A352" transform="translate(239,425)"/>
<path d="M0 0 C0.33 0.99 0.66 1.98 1 3 C-0.06893218 4.03590338 -1.15578488 5.05333942 -2.25 6.0625 C-3.15492188 6.91521484 -3.15492188 6.91521484 -4.078125 7.78515625 C-6 9 -6 9 -8.234375 8.68359375 C-8.81703125 8.45800781 -9.3996875 8.23242188 -10 8 C-9.36191406 7.50628906 -8.72382813 7.01257813 -8.06640625 6.50390625 C-7.24011719 5.86324219 -6.41382813 5.22257812 -5.5625 4.5625 C-4.73878906 3.92441406 -3.91507812 3.28632813 -3.06640625 2.62890625 C-1.12498733 1.16417803 -1.12498733 1.16417803 0 0 Z " fill="#2FAB44" transform="translate(345,337)"/>
<path d="M0 0 C-1 3 -1 3 -3 4 C-3.33 4.99 -3.66 5.98 -4 7 C-6.0625 7.6875 -6.0625 7.6875 -8 8 C-8 7.01 -8 6.02 -8 5 C-2.65116279 0 -2.65116279 0 0 0 Z " fill="#2C9843" transform="translate(378,312)"/>
<path d="M0 0 C3.7952131 1.49097658 5.61042731 3.75700849 8 7 C7.67 7.66 7.34 8.32 7 9 C5.82460004 8.07347299 4.65989423 7.13336613 3.5 6.1875 C2.52546875 5.40439453 2.52546875 5.40439453 1.53125 4.60546875 C0 3 0 3 0 0 Z " fill="#3AA14F" transform="translate(315,715)"/>
<path d="M0 0 C0.99 0.33 1.98 0.66 3 1 C3 1.66 3 2.32 3 3 C4.32 3 5.64 3 7 3 C7.66 4.32 8.32 5.64 9 7 C4.68381834 7 3.07210341 4.86729652 0 2 C0 1.34 0 0.68 0 0 Z " fill="#30A948" transform="translate(292,698)"/>
<path d="M0 0 C5.01113235 1.4317521 6.94469549 3.98445693 10 8 C8.68 7.67 7.36 7.34 6 7 C6 6.34 6 5.68 6 5 C5.195625 4.731875 4.39125 4.46375 3.5625 4.1875 C2.716875 3.795625 1.87125 3.40375 1 3 C0.67 2.01 0.34 1.02 0 0 Z " fill="#1F9643" transform="translate(201,625)"/>
<path d="M0 0 C0.66 0.33 1.32 0.66 2 1 C1.01 2.98 0.02 4.96 -1 7 C-1.99 6.67 -2.98 6.34 -4 6 C-3.6875 4.125 -3.6875 4.125 -3 2 C-2.01 1.34 -1.02 0.68 0 0 Z " fill="#3FAC54" transform="translate(378,313)"/>
<path d="M0 0 C0.99 0.33 1.98 0.66 3 1 C2.8125 2.8125 2.8125 2.8125 2 5 C-0.5625 6.75 -0.5625 6.75 -3 8 C-3.33 7.01 -3.66 6.02 -4 5 C-2.68 4.34 -1.36 3.68 0 3 C0 2.01 0 1.02 0 0 Z " fill="#329F51" transform="translate(608,838)"/>
<path d="M0 0 C4.43090471 1.20842856 6.98112756 2.51668565 10 6 C6.44219804 5.39009109 3.3171411 4.4216319 0 3 C0 2.01 0 1.02 0 0 Z " fill="#30954D" transform="translate(573,210)"/>
<path d="M0 0 C0.99 0.33 1.98 0.66 3 1 C1.75 3 1.75 3 0 5 C-1.32 5 -2.64 5 -4 5 C-4.33 4.01 -4.66 3.02 -5 2 C-4.34 1.67 -3.68 1.34 -3 1 C-3 1.66 -3 2.32 -3 3 C-2.01 2.01 -1.02 1.02 0 0 Z " fill="#34A959" transform="translate(639,815)"/>
<path d="M0 0 C1.32 0 2.64 0 4 0 C4 1.32 4 2.64 4 4 C4.66 4.66 5.32 5.32 6 6 C3.83125748 5.49396008 2.00032373 5.00016187 0 4 C0 2.68 0 1.36 0 0 Z " fill="#359A4C" transform="translate(468,838)"/>
<path d="M0 0 C-0.75 2.4375 -0.75 2.4375 -2 5 C-4.125 5.8125 -4.125 5.8125 -6 6 C-6 5.01 -6 4.02 -6 3 C-2.66666667 0 -2.66666667 0 0 0 Z " fill="#30AD45" transform="translate(316,362)"/>
<path d="M0 0 C0.99 0.33 1.98 0.66 3 1 C1.35 2.65 -0.3 4.3 -2 6 C-2.66 5.67 -3.32 5.34 -4 5 C-3 2 -3 2 0 0 Z " fill="#2D9C4C" transform="translate(525,193)"/>
<path d="M0 0 C0.66 0.99 1.32 1.98 2 3 C1.01 4.98 0.02 6.96 -1 9 C-1.66 9 -2.32 9 -3 9 C-2.67 7.02 -2.34 5.04 -2 3 C-1.34 3 -0.68 3 0 3 C0 2.01 0 1.02 0 0 Z " fill="#1A7944" transform="translate(974,542)"/>
<path d="M0 0 C2.4375 0.75 2.4375 0.75 5 2 C5.8125 4.125 5.8125 4.125 6 6 C3.5625 5.25 3.5625 5.25 1 4 C0.1875 1.875 0.1875 1.875 0 0 Z " fill="#259A4E" transform="translate(885,460)"/>
<path d="M0 0 C0 3 0 3 -2.375 5.6875 C-5 8 -5 8 -7 8 C-5.50902342 4.2047869 -3.24299151 2.38957269 0 0 Z " fill="#27994C" transform="translate(226,433)"/>
<path d="M0 0 C0.66 0.33 1.32 0.66 2 1 C-1.96 4.465 -1.96 4.465 -6 8 C-6 5 -6 5 -4.6875 3.61328125 C-3.125 2.40885417 -1.5625 1.20442708 0 0 Z " fill="#36A14D" transform="translate(368,319)"/>
<path d="M0 0 C3.37462715 0.54723683 5.08235 1.0549 8 3 C7.67 3.99 7.34 4.98 7 6 C5.83054208 5.19152271 4.66449539 4.37810888 3.5 3.5625 C2.8503125 3.11003906 2.200625 2.65757812 1.53125 2.19140625 C1.0259375 1.79824219 0.520625 1.40507813 0 1 C0 0.67 0 0.34 0 0 Z " fill="#31A75A" transform="translate(436,815)"/>
<path d="M0 0 C-2.3125 2.0625 -2.3125 2.0625 -5 4 C-5.99 3.67 -6.98 3.34 -8 3 C-5.45189726 -0.82215411 -4.39145359 -1.46381786 0 0 Z " fill="#36AB49" transform="translate(659,804)"/>
<path d="M0 0 C1.32 0.33 2.64 0.66 4 1 C3.67 2.65 3.34 4.3 3 6 C2.01 5.67 1.02 5.34 0 5 C0 3.35 0 1.7 0 0 Z " fill="#3EA954" transform="translate(657,795)"/>
<path d="M0 0 C0.556875 0.28875 1.11375 0.5775 1.6875 0.875 C4.08494645 2.0413253 6.51596939 3.0339881 9 4 C7.02 4.99 7.02 4.99 5 6 C3.35 4.02 1.7 2.04 0 0 Z " fill="#299D42" transform="translate(253,667)"/>
<path d="M0 0 C0 0.66 0 1.32 0 2 C-2.3125 4.1875 -2.3125 4.1875 -5 6 C-5.99 5.67 -6.98 5.34 -8 5 C-2.25 0 -2.25 0 0 0 Z " fill="#178750" transform="translate(970,552)"/>
<path d="M0 0 C0.33 0.66 0.66 1.32 1 2 C0.25 4.0625 0.25 4.0625 -1 6 C-1.99 6.33 -2.98 6.66 -4 7 C-4.33 6.01 -4.66 5.02 -5 4 C-4.34 4 -3.68 4 -3 4 C-3 3.34 -3 2.68 -3 2 C-2.01 1.34 -1.02 0.68 0 0 Z " fill="#31A551" transform="translate(501,214)"/>
</svg>
